<?xml version="1.0"?>
<svg xmlns="http://www.w3.org/2000/svg" viewBox="0 0 512 512" width="512" height="512"><g id="Fill_out_line" data-name="Fill out line"><path d="M344,224,232,328V432a24,24,0,0,1-24,24h0a24,24,0,0,1-24-24V328L72,224Z" style="fill:#a6b2bc"/><path d="M344,224,234.65836,325.53153A39.17743,39.17743,0,0,1,208,336h0a39.17747,39.17747,0,0,1-26.65834-10.46847L72,224Z" style="fill:#c4d4e0"/><path d="M392,128v48c0,39.76-82.38,72-184,72S24,215.76,24,176V128c0-39.76,82.38-72,184-72S392,88.24,392,128Z" style="fill:#2d80b3"/><path d="M488,188a44.00947,44.00947,0,0,1-44,44,67.53057,67.53057,0,0,1-47.8-19.8L372,188l12-20,12.2,12.2A67.59146,67.59146,0,0,0,444,200a44.06607,44.06607,0,0,0,41-28A43.80339,43.80339,0,0,1,488,188Z" style="fill:#379ec3"/><path d="M488,156v32a43.96156,43.96156,0,0,0-44-44H384V112h60a44.00947,44.00947,0,0,1,44,44Z" style="fill:#8acce7"/><path d="M392,128v48c0,39.76-82.38,72-184,72S24,215.76,24,176V128c0,8.41992,3.69,16.5,10.48,24,8.08,8.93994,20.54,17.07007,36.37,24,33.69,14.73,82.65,24,137.15,24s103.46-9.27,137.15-24c15.83-6.92993,28.28992-15.06006,36.37-24C388.31006,144.5,392,136.41992,392,128Z" style="fill:#8acce7"/><path d="M392,128c0,8.41992-3.68994,16.5-10.48,24-8.08008-8.93994-20.54-17.07007-36.37-24C311.46,113.27,262.5,104,208,104s-103.46,9.27-137.15,24c-15.83,6.92993-28.29,15.06006-36.37,24C27.69,144.5,24,136.41992,24,128c0-39.76,82.38-72,184-72S392,88.24,392,128Z" style="fill:#379ec3"/><path d="M444,104H391.74561c-9.396-13.15234-26.6233-24.93115-50.72266-34.36133C305.36328,55.68457,258.12158,48,208,48S110.63672,55.68457,74.97705,69.63867C36.94531,84.52051,16,105.24707,16,128v48c0,21.43677,18.59863,41.07275,52.55591,55.71875L176,331.48828V432a32,32,0,0,0,64,0V331.4834c.03333-.03076.0683-.05908.10156-.08985L347.445,231.71826c14.75573-6.36426,26.61413-13.66968,35.30236-21.65722l7.79712,7.79736A75.10271,75.10271,0,0,0,444,240a52.05807,52.05807,0,0,0,51.83081-48H496V156A52.059,52.059,0,0,0,444,104Zm0,16a36.05192,36.05192,0,0,1,35.50012,30.05371A51.79714,51.79714,0,0,0,444,136H400v-8a36.96423,36.96423,0,0,0-.88672-8Zm-44,32h44a36.03522,36.03522,0,0,1,32.24341,20.01416A35.76258,35.76258,0,0,1,444,192,59.2069,59.2069,0,0,1,401.85791,174.544L400,172.686ZM80.80762,84.53809C114.65381,71.294,159.8252,64,208,64S301.34619,71.294,335.19238,84.53809C366.21045,96.67578,384,112.5166,384,128a23.90863,23.90863,0,0,1-3.45923,11.94482c-14.19739-12.12353-35.73974-22.44824-63.03931-30.1333C285.40186,100.77637,247.53711,96,208,96c-39.53516,0-77.39893,4.77539-109.498,13.81152-27.30127,7.68409-48.84485,18.009-63.04278,30.13306A23.90762,23.90762,0,0,1,32,128C32,112.5166,49.78955,96.67578,80.80762,84.53809Zm289.22387,67.479c-8.28,7.02979-20.05212,13.65845-34.83911,19.44482C301.34619,184.70605,256.1748,192,208,192s-93.34619-7.29395-127.19238-20.53809c-14.78675-5.78613-26.55866-12.415-34.83875-19.44433,12.33106-10.46778,32.13788-19.84375,56.86853-26.80469C133.54492,116.56836,169.90967,112,208,112c38.0918,0,74.45752,4.56934,105.166,13.21289C337.89526,132.17407,357.70117,141.55029,370.03149,152.01709ZM229.21436,319.669A31.08136,31.08136,0,0,1,208,328v16a47.15068,47.15068,0,0,0,16-2.79785V432a16,16,0,0,1-32,0V328a7.99911,7.99911,0,0,0-2.55664-5.8623l-84.11554-78.10743C135.66333,251.81787,171.04565,256,208,256c36.954,0,72.33594-4.18188,102.67139-11.96924Zm105.978-100.207C301.34619,232.70605,256.1748,240,208,240s-93.34619-7.29395-127.19238-20.53809C49.78955,207.32422,32,191.4834,32,176V160.87085c9.97192,9.58984,24.43774,18.23608,42.97705,25.49048C110.63672,200.31543,157.87842,208,208,208s97.36328-7.68457,133.02295-21.63867c18.53931-7.2544,33.00513-15.90064,42.97705-25.49048V176C384,191.4834,366.21045,207.32422,335.19238,219.46191ZM444,224A59.20692,59.20692,0,0,1,401.85791,206.544l-8.6709-8.67115a46.40168,46.40168,0,0,0,3.50708-6.509A75.01768,75.01768,0,0,0,444,208a51.76616,51.76616,0,0,0,35.471-13.89038A36.05146,36.05146,0,0,1,444,224Z"/></g></svg>
