<svg width="516" height="426" viewBox="0 0 516 426" fill="none" xmlns="http://www.w3.org/2000/svg">
<path d="M453.703 219.842C401.308 246.634 421.149 277.137 431.575 309.308C439.518 333.781 442.032 359.229 403.204 384.752L36.3953 381.96C18.8569 361.712 2.36026 340.902 0.586076 315.957C-1.85546 281.694 7.09684 247.594 17.6036 226.06C62.3651 134.527 190.44 0.461657 356.839 0.111703C530.506 -0.24639 547.295 171.972 453.703 219.842Z" fill="url(#paint0_linear)"/>
<path d="M240.947 37.3452H10.9545C5.97879 37.3452 1.9452 41.3788 1.9452 46.3544V198.641C1.9452 203.617 5.97879 207.651 10.9545 207.651H240.947C245.923 207.651 249.957 203.617 249.957 198.641V46.3544C249.957 41.3788 245.923 37.3452 240.947 37.3452Z" fill="url(#paint1_linear)"/>
<path d="M237.529 44.6535H14.3808C11.4097 44.6535 9.00124 47.062 9.00124 50.033V194.971C9.00124 197.942 11.4097 200.35 14.3808 200.35H237.529C240.5 200.35 242.909 197.942 242.909 194.971V50.033C242.909 47.062 240.5 44.6535 237.529 44.6535Z" fill="white"/>
<path d="M447.526 187.614L496.023 200.049C499.56 200.957 502.869 202.594 505.736 204.856C508.603 207.117 510.965 209.954 512.671 213.183C514.377 216.411 515.389 219.961 515.642 223.604C515.895 227.247 515.383 230.903 514.139 234.337L480.405 327.53L365.148 283.989L411.644 181.917L447.526 187.614Z" fill="url(#paint2_linear)"/>
<path d="M387.09 225.555C382.092 232.558 377.991 240.159 374.882 248.18C369.999 261.063 355.846 280.482 355.846 280.482L371.456 286.382C371.456 286.382 385.633 262.357 387.065 256.319C388.498 250.28 387.09 225.555 387.09 225.555Z" fill="url(#paint3_linear)"/>
<path d="M371.48 286.382L427.701 307.624L461.76 320.49C461.76 320.49 473.154 319.05 473.968 312.132C474.782 305.215 471.526 245.804 464.405 232.375C457.284 218.947 439.615 215.757 439.615 215.757C439.615 215.757 425.983 226.475 417.845 225.523C409.707 224.57 412.49 215.757 412.49 215.757L403.603 213.917L393.308 215.87L387.114 225.555L371.48 286.382Z" fill="url(#paint4_linear)"/>
<path d="M227.722 235.427C227.722 235.427 233.419 252.388 240.003 251.297C240.003 247.497 242.917 236.9 242.917 236.9L239.002 227.395L227.722 235.427Z" fill="url(#paint5_linear)"/>
<path d="M242.559 229.193L238.034 256.319L325.083 265.1L321.364 230.756L242.559 229.193Z" fill="url(#paint6_linear)"/>
<path d="M303.907 238.08C300.879 238.52 271.393 238.202 262.832 236.908C264.158 227.5 270.628 181.201 271.125 164.265C271.369 155.898 271.613 145.204 271.532 135.845V134.217C271.532 133.745 271.532 133.273 271.532 132.809C271.532 132.663 271.532 132.516 271.532 132.37C271.532 132.061 271.532 131.751 271.532 131.45C271.532 130.718 271.491 130.002 271.467 129.294C271.442 128.585 271.467 127.983 271.402 127.348C271.342 126.079 271.277 124.874 271.206 123.735C271.206 123.328 271.149 122.921 271.117 122.539L271.068 121.912C271.068 121.7 271.068 121.505 271.011 121.302C270.954 121.098 271.011 120.813 270.938 120.577C270.864 120.341 270.938 120.219 270.881 120.04C270.826 119.498 270.761 119.001 270.685 118.551C270.685 118.421 270.685 118.298 270.628 118.168C270.531 117.55 270.425 116.996 270.303 116.541L270.156 115.979C270.118 115.843 270.078 115.713 270.034 115.588C270.001 115.466 269.957 115.346 269.904 115.23C269.864 115.127 269.818 115.026 269.766 114.929C269.752 114.882 269.73 114.838 269.701 114.799C269.682 114.755 269.658 114.714 269.627 114.677V114.677L267.731 97.7C268.379 97.6672 269.028 97.6672 269.676 97.7C269.676 97.7 287.304 98.0825 294.588 97.7814C296.004 102.233 297.542 108.247 296.281 110.266C294.393 113.269 290.999 113.79 293.18 120.032C293.14 120.117 293.104 120.204 293.074 120.292C293.04 120.386 293.01 120.481 292.985 120.577C292.985 120.675 292.928 120.781 292.903 120.887L292.83 121.212C291.748 126.608 303.76 236.778 303.907 238.08Z" fill="url(#paint7_linear)"/>
<path d="M271.149 164.256C270.653 181.192 263.011 236.176 261.652 245.584C253.764 244.422 245.994 242.568 238.433 240.042L238.05 154.588L229.521 175.829L240.003 226.695L225.143 237.275C217.517 240.139 204.601 187.484 205.301 175.609C205.985 163.923 227.788 120.488 235.112 112.007C239.548 106.872 251.275 102.721 259.837 100.247L251.324 122.319C251.324 122.319 258.543 124.467 260.219 120.691C261.896 116.915 266.038 112.553 269.123 114.18C269.179 114.208 269.231 114.244 269.277 114.286C269.335 114.337 269.387 114.395 269.432 114.457C269.477 114.511 269.517 114.568 269.554 114.628C269.584 114.665 269.609 114.706 269.627 114.75C269.657 114.789 269.679 114.833 269.692 114.88C269.745 114.978 269.791 115.078 269.831 115.181C269.88 115.298 269.924 115.418 269.961 115.539C269.999 115.659 270.04 115.789 270.083 115.93L270.23 116.492C270.344 116.98 270.449 117.533 270.555 118.119C270.555 118.25 270.596 118.372 270.612 118.502C270.677 118.974 270.75 119.47 270.807 119.991C270.807 120.17 270.848 120.349 270.864 120.528L270.938 121.253C270.938 121.456 270.938 121.651 270.995 121.863L271.043 122.49C271.043 122.88 271.1 123.304 271.133 123.686C271.209 124.825 271.274 126.03 271.328 127.3C271.328 127.934 271.377 128.577 271.393 129.245C271.41 129.912 271.393 130.669 271.458 131.401C271.458 131.702 271.458 132.012 271.458 132.321C271.458 132.467 271.458 132.614 271.458 132.76V134.168V135.796C271.613 145.196 271.369 155.89 271.149 164.256Z" fill="url(#paint8_linear)"/>
<path d="M71.8709 184.399C56.6519 189.632 45.6487 209.905 51.7607 228.925L71.4639 290.232L180.682 267.721L132.185 177.107L71.8709 184.399Z" fill="url(#paint9_linear)"/>
<path d="M270.335 118.673C270.299 118.613 270.258 118.556 270.213 118.502C270.168 118.439 270.116 118.382 270.059 118.331C270.013 118.288 269.96 118.253 269.904 118.225C266.82 116.597 262.685 120.935 261.001 124.736C259.316 128.537 251.291 122.294 251.291 122.294L260.651 104.292L261.627 101.769L268.48 95.584V102.453L269.522 114.62L270.335 118.673Z" fill="url(#paint10_linear)"/>
<path d="M268.455 101.167C268.569 99.2463 268.944 94.3144 269.123 88.5687C269.245 84.589 269.359 80.4709 269.456 77.2969C269.456 77.0202 269.456 76.7516 269.456 76.483C269.523 74.7621 269.48 73.0386 269.326 71.3233C269.253 71.2175 269.18 71.1198 269.115 71.014C263.011 62.3221 263.255 56.1939 266.624 53.7523C267.069 53.4365 267.557 53.1871 268.073 53.0117V53.0117C268.073 53.0117 265.436 41.4063 269.261 31.4448C274.315 18.2523 292.374 16.2584 303.736 18.3337C315.097 20.409 326.116 32.6981 323.593 45.3209C322.592 50.3342 320.778 54.9975 320.68 59.4899C320.582 63.9824 323.121 71.1768 320.476 78.7455C316.651 89.6022 305.754 93.5169 298.91 94.2086C298.036 94.2936 297.158 94.3262 296.281 94.3063L296.167 96.1944L296.077 97.7326L295.98 99.3603C295.76 103.104 295.394 103.983 295.394 103.983C294.47 106.501 292.743 108.646 290.479 110.084C288.216 111.523 285.541 112.176 282.869 111.942C273.078 111.397 268.187 105.838 268.455 101.167Z" fill="url(#paint11_linear)"/>
<path d="M269.448 77.2969C276.887 90.8312 287.768 95.6736 296.069 97.7163L296.159 96.1781L296.273 94.29C288.354 90.9532 279.182 84.1902 269.123 71.0303C269.188 71.1361 269.261 71.2337 269.334 71.3395C269.488 73.0549 269.531 74.7784 269.465 76.4993C269.456 76.7598 269.456 77.0202 269.448 77.2969Z" fill="url(#paint12_linear)"/>
<path d="M272.053 58.6354C272.053 58.6354 269.749 55.2091 267.983 57.6832C266.217 60.1573 268.691 64.5928 268.691 64.5928L272.053 58.6354Z" fill="url(#paint13_linear)"/>
<path d="M267.601 140.801C269.129 140.801 270.368 139.562 270.368 138.034C270.368 136.506 269.129 135.267 267.601 135.267C266.073 135.267 264.834 136.506 264.834 138.034C264.834 139.562 266.073 140.801 267.601 140.801Z" fill="url(#paint14_linear)"/>
<path d="M267.031 164.02C268.559 164.02 269.798 162.781 269.798 161.253C269.798 159.725 268.559 158.486 267.031 158.486C265.503 158.486 264.264 159.725 264.264 161.253C264.264 162.781 265.503 164.02 267.031 164.02Z" fill="url(#paint15_linear)"/>
<path d="M264.842 187.606C266.37 187.606 267.609 186.367 267.609 184.839C267.609 183.31 266.37 182.071 264.842 182.071C263.314 182.071 262.075 183.31 262.075 184.839C262.075 186.367 263.314 187.606 264.842 187.606Z" fill="url(#paint16_linear)"/>
<path d="M262.075 213.925C263.603 213.925 264.842 212.687 264.842 211.158C264.842 209.63 263.603 208.391 262.075 208.391C260.547 208.391 259.308 209.63 259.308 211.158C259.308 212.687 260.547 213.925 262.075 213.925Z" fill="url(#paint17_linear)"/>
<path d="M257.908 242.443C259.436 242.443 260.675 241.204 260.675 239.675C260.675 238.147 259.436 236.908 257.908 236.908C256.38 236.908 255.141 238.147 255.141 239.675C255.141 241.204 256.38 242.443 257.908 242.443Z" fill="url(#paint18_linear)"/>
<path d="M295.817 135.267L302.051 134.103" stroke="url(#paint19_linear)" stroke-width="2" stroke-miterlimit="10"/>
<path d="M297.965 158.551L304.208 157.387" stroke="url(#paint20_linear)" stroke-width="2" stroke-miterlimit="10"/>
<path d="M301.082 182.657L307.683 182.071" stroke="url(#paint21_linear)" stroke-width="2" stroke-miterlimit="10"/>
<path d="M303.133 208.676L309.726 208.098" stroke="url(#paint22_linear)" stroke-width="2" stroke-miterlimit="10"/>
<path d="M306.429 238.902L313.022 237.258" stroke="url(#paint23_linear)" stroke-width="2" stroke-miterlimit="10"/>
<path d="M322.397 231.627L315.618 233.669L303.133 128.268H319.687L317.726 120.667" stroke="url(#paint24_linear)" stroke-miterlimit="10"/>
<path d="M220.422 226.548L236.74 215.895" stroke="#1F1844" stroke-miterlimit="10"/>
<path d="M374.906 217.759L384.656 202.768" stroke="#1F1844" stroke-miterlimit="10"/>
<path d="M242.054 145.058L261.627 145.896L260.895 151.292L250.567 154.58L241.558 150.478L242.054 145.058Z" fill="url(#paint25_linear)"/>
<path d="M242.054 143.845L261.627 144.683L260.895 150.079L250.567 153.367L241.558 149.265L242.054 143.845Z" fill="url(#paint26_linear)"/>
<path d="M240.475 107.841L242.852 132.158L263.637 131.963C260.944 184.733 260.13 190.104 255.247 234.727L243.039 231.985" stroke="url(#paint27_linear)" stroke-miterlimit="10"/>
<path d="M278.962 61.8094L278.515 64.902C285.538 68.9061 299.675 80.4058 302.678 80.8778C306.519 81.4719 307.805 77.0202 309.872 78.0538C311.939 79.0873 311.638 81.773 313.079 81.773C313.827 81.773 319.475 78.599 321.087 76.6702C321.087 76.6702 319.134 83.0426 318.596 84.3692C317.359 87.4537 308.83 95.1852 308.83 95.1852C308.455 95.5313 308.008 95.792 307.522 95.9494C307.036 96.1067 306.522 96.157 306.014 96.0967L296.948 95.0794L292.391 92.4507C286.043 89.057 273.225 75.6692 273.168 73.8462C273.119 70.4428 273.466 67.0453 274.201 63.7219L278.962 61.8094Z" fill="#1F1844"/>
<path d="M507.051 337.451C488.235 441.143 236.658 429.294 132.795 420.211C76.3551 415.271 6.48646 393.794 0.683739 316.706C0.683739 316.456 0.66475 316.207 0.62677 315.957V304.718L270.335 248.18L507.051 337.451Z" fill="url(#paint28_linear)"/>
<g style="mix-blend-mode:multiply" opacity="0.5">
<path d="M143.424 392.402C157.273 392.402 168.499 386.776 168.499 379.836C168.499 372.896 157.273 367.27 143.424 367.27C129.576 367.27 118.35 372.896 118.35 379.836C118.35 386.776 129.576 392.402 143.424 392.402Z" fill="#BFC3DB"/>
</g>
<g style="mix-blend-mode:multiply" opacity="0.5">
<path d="M69.9827 347.681C83.8311 347.681 95.0573 342.055 95.0573 335.115C95.0573 328.175 83.8311 322.549 69.9827 322.549C56.1344 322.549 44.9081 328.175 44.9081 335.115C44.9081 342.055 56.1344 347.681 69.9827 347.681Z" fill="#BFC3DB"/>
</g>
<g style="mix-blend-mode:multiply" opacity="0.5">
<path d="M280.997 308.405L278.612 310.439L365.148 348.592L426.032 319.636L280.997 308.405Z" fill="#BBBFD9"/>
</g>
<path d="M270.514 240.147L280.997 304.718L366.89 339.599L353.348 266.964L270.514 240.147Z" fill="url(#paint29_linear)"/>
<path d="M387.09 225.555C387.09 225.555 390.085 229.861 392.526 231.488C394.968 233.116 398.768 236.933 399.306 238.894C399.843 240.856 403.643 237.055 401.072 232.986C398.5 228.916 395.513 226.475 396.327 224.847C397.141 223.22 404.604 214.943 412.465 215.757C420.327 216.57 414.093 208.839 410.569 208.839C407.045 208.839 394.292 214.275 394.292 214.275L387.09 225.555Z" fill="url(#paint30_linear)"/>
<path d="M446.305 266.98L447.526 300.144L427.701 307.64L421.621 305.345L442.439 297.906C442.439 297.906 445.312 267.371 446.305 266.98Z" fill="url(#paint31_linear)"/>
<path d="M366.89 339.599L426.032 314.916L357.108 287.147L366.89 339.599Z" fill="url(#paint32_linear)"/>
<path d="M438.346 166.063C436.645 169.668 432.331 173.502 432.185 174.665C430.403 178.368 426.423 186.442 423.802 190.462C420.335 195.785 409.967 196.664 406.223 191.447C402.48 186.23 394.016 179.744 394.016 179.744C394.016 179.744 389.36 175.837 389.808 173.762C390.256 171.687 399.867 168.301 400.534 164.094C400.844 162.165 400.29 160.285 399.867 158.315C399.371 156.004 399.053 153.562 400.486 150.738V150.665C401.3 149.037 404.596 148.964 408.901 149.778C410.024 149.981 411.212 150.258 412.449 150.592C421.817 152.993 433.764 158.104 437.418 160.675C439.428 162.059 439.306 164.028 438.346 166.063Z" fill="url(#paint33_linear)"/>
<path d="M443.229 163.622L436.97 174.462L427.904 172.102L425.21 162.629L405.678 157.534L399.9 158.307C399.403 155.996 399.086 153.554 400.518 150.73L408.95 149.786L412.498 150.6L435.107 155.654L443.229 163.622Z" fill="url(#paint34_linear)"/>
<path d="M439.721 179.671C436.881 180.379 433.267 181.982 431.583 185.213C430.243 187.848 429.727 190.826 430.101 193.758C429.857 193.661 429.711 193.587 429.711 193.587C429.711 193.587 426.162 205.551 422.842 208.285C421.279 209.571 415.086 209.636 408.559 209.099C401.186 208.538 393.373 207.244 391.371 206.194C387.602 204.2 389.377 197.551 391.371 194.89C391.886 194.186 392.282 193.402 392.543 192.57C395.448 193.693 399.737 195.077 400.461 193.783C401.275 192.285 396.107 188.403 392.543 186.458C392.419 186.136 392.249 185.835 392.038 185.563C390.484 183.569 394.032 179.719 394.032 179.719C394.032 179.719 402.455 186.23 406.24 191.423C410.024 196.615 420.352 195.76 423.819 190.438C426.439 186.417 430.419 178.344 432.201 174.641C432.201 174.828 432.201 174.926 432.201 174.926C432.201 174.926 435.872 178.694 439.721 179.671Z" fill="#1F1844"/>
<path d="M400.461 193.807C399.745 195.101 395.456 193.718 392.543 192.594C393.227 190.623 393.227 188.478 392.543 186.507C396.107 188.428 401.291 192.31 400.461 193.807Z" fill="url(#paint35_linear)"/>
<path d="M442.561 191.471C442.096 192.474 441.371 193.334 440.462 193.962C440.275 195.077 440.022 196.607 439.77 198.373L439.249 202.182C438.631 207.065 438.159 212.599 438.574 215.822C439.461 222.617 415.786 230.153 411.098 227.72C407.843 226.003 407.949 217.083 408.315 211.948C408.396 210.76 408.494 209.775 408.559 209.132C415.07 209.636 421.279 209.571 422.842 208.318C423.799 207.402 424.586 206.325 425.17 205.136C427.01 201.434 428.529 197.581 429.711 193.62C429.711 193.62 429.646 187.923 431.046 185.205C431.896 183.692 433.039 182.364 434.409 181.298C435.778 180.232 437.346 179.449 439.021 178.995C439.152 178.995 440.649 178.995 440.795 178.995C444.783 179.768 445.89 184.725 442.561 191.471Z" fill="url(#paint36_linear)"/>
<path d="M415.33 121.676L414.988 123.247L411.733 122.18L410.919 122.864L409.983 122.783V121.676L400.551 120.317V122.115L396.482 121.35C396.482 121.35 395.546 122.978 395.204 122.587C395.163 122.536 395.111 122.495 395.051 122.467C394.992 122.439 394.928 122.424 394.862 122.424C394.796 122.424 394.732 122.439 394.673 122.467C394.613 122.495 394.561 122.536 394.52 122.587V123.312L401.845 124.842L401.503 126.714L405.759 127.479C405.759 127.479 408.396 126.461 408.266 127.479C408.136 128.496 405.076 127.934 404.482 127.934C403.888 127.934 403.888 129.611 403.888 129.611C403.888 129.611 401.503 129.098 401.161 129.098C400.819 129.098 400.99 129.611 399.46 129.611C397.93 129.611 397.759 128.797 397.759 128.797L390.785 128.626V129.643C390.785 129.643 386.715 129.44 386.308 130.254C385.902 131.068 391.753 130.254 391.753 130.254V131.361L394.561 132.044C394.561 132.044 388.351 135.3 386.813 138.002C386.961 137.993 387.109 138.014 387.248 138.063C387.388 138.112 387.517 138.188 387.627 138.287C387.627 138.287 384.111 141.208 385.185 144.529C385.812 143.617 386.097 143.251 386.097 143.251L392.022 144.016L391.598 145.408L385.722 146.685V148.313C385.722 148.313 381.523 148.85 381.783 150.551C382.044 152.252 387.147 150.038 387.147 150.038C387.061 150.759 387.243 151.486 387.659 152.081C387.147 153.131 383.826 158.38 383.826 158.38H384.933C384.933 158.38 382.296 163.263 382.972 165.868C383.979 162.985 385.291 160.219 386.886 157.615H387.399L392.282 152.081L406.549 154.043L420.677 139.393L422.598 122.929L415.33 121.676ZM404.058 140.736L399.037 141.159L398.402 139.629C398.402 139.629 391.257 140.695 390.915 140.264C390.573 139.833 390.915 141.623 390.915 141.623L386.528 141.322L389.206 137.749L390.02 138.384L394.138 136.252L395.928 135.324L396.14 136.431L393.796 137.196L392.982 137.578L393.194 138.816L399.322 137.88L399.452 138.474H398.687C398.687 138.474 399.2 139.662 399.501 139.662C399.802 139.662 405.8 139.361 405.8 139.361L404.058 140.736Z" fill="#1F1844"/>
<path d="M449.333 136.895L447.762 137.261L447.339 133.884L446.362 133.403L446.037 132.524L447.038 132.052L444.214 122.929L442.586 123.694L441.528 119.674C441.528 119.674 439.664 119.519 439.9 119.047C439.929 118.988 439.944 118.923 439.944 118.858C439.944 118.792 439.93 118.727 439.902 118.668C439.874 118.609 439.833 118.556 439.782 118.515C439.731 118.473 439.671 118.444 439.607 118.429L438.956 118.738L440.714 126.006L438.875 126.502L440.006 130.677C440.006 130.677 442.057 132.622 441.08 132.948C440.104 133.273 439.298 130.262 439.046 129.692C438.793 129.123 437.28 129.871 437.28 129.871C437.28 129.871 436.718 127.503 436.572 127.194C436.425 126.885 436.034 127.259 435.383 125.875C434.732 124.492 435.383 123.971 435.383 123.971L432.543 117.599L431.623 118.038C431.623 118.038 430.061 114.351 429.109 114.335C428.156 114.319 431.444 119.218 431.444 119.218L430.443 119.69L431.029 122.522C431.029 122.522 425.446 118.298 422.329 118.087C422.402 118.217 422.448 118.36 422.465 118.508C422.482 118.656 422.469 118.806 422.427 118.95C422.427 118.95 418.276 117.029 415.753 119.446C416.844 119.617 417.3 119.715 417.3 119.715L419.155 125.411L417.715 125.623L414.044 120.87L412.596 121.529C412.596 121.529 410.309 117.965 408.876 118.933C407.444 119.902 411.635 123.556 411.635 123.556C410.947 123.786 410.368 124.261 410.008 124.891C408.844 124.891 402.683 124.134 402.683 124.134L403.155 125.135C403.155 125.135 397.645 124.834 395.554 126.583C398.592 126.258 401.655 126.258 404.693 126.583L404.913 127.047L411.993 129.057L422.932 145.562L435.668 149.249L451.335 143.943L449.333 136.895ZM427.278 134.893L424.738 130.539L425.845 129.302C425.845 129.302 421.817 123.304 422.053 122.791C422.289 122.278 420.824 123.377 420.824 123.377L419.196 119.308L423.574 120.195L423.347 121.196L427.041 124.004L428.669 125.224L427.758 125.892L426.065 124.109L425.357 123.507L424.331 124.231L427.806 129.367L427.326 129.741L427.001 129.049C427.001 129.049 426.146 130.018 426.268 130.295C426.39 130.571 429.239 135.853 429.239 135.853L427.278 134.893Z" fill="#1F1844"/>
<path d="M442.342 134.779L446.159 133.306L446.973 134.779C446.973 134.779 451.636 133.477 452.32 134.046C453.003 134.616 452.832 135.121 452.832 135.121L458.261 135.796L457.667 136.561C457.667 136.561 459.359 137.831 459.107 137.831C458.339 137.903 457.576 138.017 456.82 138.173C456.2 138.215 455.577 138.215 454.956 138.173L454.533 138.986L453.174 139.41C453.174 139.41 456.739 139.581 457.162 140.85C457.585 142.12 462.761 141.786 462.338 142.803C462.146 143.35 461.791 143.825 461.321 144.162C461.321 144.162 465.479 145.351 465.309 145.945C465.138 146.539 463.949 146.759 463.949 146.759L461.508 146.417C461.413 146.68 461.372 146.959 461.386 147.239C461.4 147.518 461.469 147.792 461.589 148.045C462.42 148.769 463.332 149.394 464.308 149.908L464.226 150.722C464.226 150.722 466.008 151.829 465.854 152.586L465.683 153.351C465.683 153.351 467.636 155.385 467.547 155.898C467.457 156.411 466.277 156.492 466.277 156.492C466.277 156.492 466.358 157.257 465.854 157.306C465.38 157.301 464.915 157.184 464.495 156.964L463.388 157.314L462.118 156.289C462.118 156.289 466.358 162.401 465.431 162.734L464.495 163.076C464.495 163.076 467.294 168.505 465.935 168.505C464.576 168.505 464.308 168.138 464.308 168.138L462.948 164.688L461.679 165.111L459.962 162.433L454.916 162.604L451.31 155.28L442.342 134.779Z" fill="#1F1844"/>
<path d="M450.358 145.717C449.666 145.367 450.358 143.633 451.05 142.584C451.352 142.199 451.593 141.771 451.766 141.314C451.213 141.981 450.863 142.437 450.863 142.437C450.863 142.437 450.667 139.947 450.545 137.554C450.131 137.522 449.72 137.457 449.316 137.359C441.853 135.869 435.042 133.591 428.091 131.971C427.906 131.963 427.724 131.922 427.554 131.849C423.839 130.968 420.059 130.394 416.25 130.132C415.379 138.449 410.895 146.506 406.549 153.994C412.661 155.866 423.64 158.877 423.64 158.877L439.705 162.889L423.241 160.838L422.427 164.867L433.471 167.552L429.988 179.125L434.871 180.875C434.871 180.875 438.72 177.839 441.52 180.191C444.319 182.543 443.229 189.958 439.721 194.279C439.795 196.896 439.56 199.513 439.021 202.076C439.021 202.076 449.943 182.617 454.37 178.124C458.798 173.632 460.23 168 460.279 165.664C460.279 164.167 462.102 161.367 463.673 159.088C458.879 155.076 455.591 149.786 450.358 145.717Z" fill="#1F1844"/>
<path d="M271.548 113.806C271.548 113.806 281.9 119.145 290.446 114.376" stroke="white" stroke-miterlimit="10"/>
<path d="M269.522 114.612C269.485 114.552 269.444 114.495 269.399 114.441C269.354 114.378 269.303 114.321 269.245 114.27C269.199 114.227 269.147 114.192 269.09 114.164C266.006 112.536 261.871 116.874 260.187 120.675C258.502 124.476 251.291 122.303 251.291 122.303L256.809 99.3277L269.123 91.0753L268.447 101.769L269.522 114.612Z" fill="url(#paint37_linear)"/>
<path d="M263.646 131.955L271.458 131.426" stroke="url(#paint38_linear)" stroke-miterlimit="10"/>
<path d="M303.133 128.268L293.156 130.156" stroke="url(#paint39_linear)" stroke-miterlimit="10"/>
<path d="M366.89 339.599V344.255L426.032 319.636V314.916L366.89 339.599Z" fill="#C8CCE0"/>
<path d="M366.89 344.255L280.997 308.405V304.718L366.89 339.599V344.255Z" fill="#C8CCE0"/>
<path d="M309.726 294.651C313.789 294.651 317.083 291.357 317.083 287.294C317.083 283.23 313.789 279.936 309.726 279.936C305.662 279.936 302.368 283.23 302.368 287.294C302.368 291.357 305.662 294.651 309.726 294.651Z" fill="white"/>
<path d="M404.05 221.641C404.05 221.641 404.929 230.772 410.154 232.424C418.496 235.069 439.021 224.139 439.021 224.139" stroke="white" stroke-miterlimit="10"/>
<path d="M288.688 371.339L221.545 384.223L184.914 350.18L226.396 343.237L239.043 366.456L278.865 363.73L288.688 371.339Z" fill="url(#paint40_linear)"/>
<path d="M290.576 369.451L223.433 382.335L186.81 348.291L228.292 341.349L240.931 364.568L280.753 361.842L290.576 369.451Z" fill="#D5527E"/>
<path d="M168.605 375.873C168.605 385.012 158.952 392.41 147.046 392.41C135.139 392.41 125.471 384.988 125.471 375.873C125.505 372.731 126.613 369.695 128.612 367.27V367.311C128.612 369.753 136.865 371.698 147.046 371.698C157.227 371.698 165.479 369.736 165.479 367.311C167.466 369.725 168.569 372.746 168.605 375.873V375.873Z" fill="url(#paint41_linear)"/>
<path d="M165.431 367.278C165.431 369.72 157.178 371.665 146.997 371.665C136.816 371.665 128.563 369.704 128.563 367.278V367.238C128.563 366.611 129.166 366.017 130.191 365.472C133.08 363.95 139.518 362.892 146.997 362.892C154.476 362.892 160.906 363.95 163.803 365.472C164.837 366.041 165.414 366.644 165.431 367.278Z" fill="url(#paint42_linear)"/>
<path d="M147.697 369.183C146.956 369.183 146.02 369.183 144.954 369.077H144.767C139.233 368.613 130.199 366.562 124.763 358.253C124.194 357.384 123.683 356.479 123.233 355.543C122.33 353.653 121.639 351.668 121.174 349.626C119.286 341.561 109.104 336.051 105.629 335.213C106.801 331.03 121.467 332.918 130.476 338.346C132.915 339.682 134.975 341.614 136.466 343.962V343.962L137.589 348.763C137.9 351.397 138.576 353.975 139.599 356.422C140.108 357.672 140.684 358.895 141.324 360.084C142.556 362.385 143.977 364.579 145.573 366.644C146.818 368.255 147.697 369.183 147.697 369.183Z" fill="url(#paint43_linear)"/>
<path d="M144.132 367.311C144.132 367.311 132.885 360.751 130.728 351.848C128.572 342.944 121.686 336.881 114.565 336.067" stroke="white" stroke-width="0.68" stroke-miterlimit="10"/>
<path d="M147.697 369.175C147.697 369.175 141.381 343.465 148.934 336.8C156.486 330.134 167.368 327.668 176.711 332.731C165.439 333.406 162.297 341.097 163.038 348.096C163.722 354.493 155.249 370.949 147.697 369.175Z" fill="#D5527E"/>
<path d="M147.697 369.175C159.351 358.782 140.779 342.122 168.572 332.055" stroke="white" stroke-width="0.65" stroke-miterlimit="10"/>
<path d="M137.581 348.747C133.113 349.561 121.459 344.865 121.695 341.585C121.914 338.582 131.534 340.893 136.458 343.945L137.581 348.747Z" fill="url(#paint44_linear)"/>
<path d="M141.324 360.068C138.224 361.525 128.799 360.336 124.755 358.228C123.713 357.691 123.037 357.089 122.907 356.462C122.87 356.292 122.881 356.114 122.939 355.949C122.996 355.784 123.098 355.638 123.233 355.526C125.17 353.72 134.789 354.452 139.599 356.414C140.109 357.662 140.685 358.881 141.324 360.068V360.068Z" fill="url(#paint45_linear)"/>
<path d="M127.017 320.621C129.117 317.064 144.181 331.73 141.544 334.944C138.907 338.159 125.023 324.014 127.017 320.621Z" fill="url(#paint46_linear)"/>
<path d="M122.907 340.739C123.208 336.596 141.398 342.554 140.462 346.639C139.526 350.725 122.622 344.678 122.907 340.739Z" fill="url(#paint47_linear)"/>
<path d="M156.649 322.411C159.905 324.934 143.961 338.631 141.129 335.595C138.297 332.56 153.581 320.002 156.649 322.411Z" fill="url(#paint48_linear)"/>
<path d="M155.127 339.925C157.837 342.985 142.48 350.684 140.169 347.25C137.857 343.815 152.547 337.011 155.127 339.925Z" fill="url(#paint49_linear)"/>
<path d="M141.357 319.432C141.592 326.061 141.276 332.698 140.413 339.274C139.005 348.519 142.553 364.17 148.315 369.175" stroke="url(#paint50_linear)" stroke-width="0.98" stroke-miterlimit="10"/>
<path d="M122.907 355.738C122.093 351.937 142.163 354.11 142.334 358.033C142.505 361.956 123.664 359.36 122.907 355.738Z" fill="url(#paint51_linear)"/>
<path d="M155.844 349.528C157.919 353.044 143.554 361.818 141.886 357.984C140.218 354.151 153.866 346.175 155.844 349.528Z" fill="url(#paint52_linear)"/>
<path d="M146.444 304.23C150.513 304.523 145.255 324.918 141.251 323.974C137.247 323.03 142.562 303.945 146.444 304.23Z" fill="url(#paint53_linear)"/>
<path d="M439.721 194.328L439.249 202.173V202.239L438.964 202.979C427.75 211.997 416.649 212.884 408.339 211.931C408.421 210.743 408.518 209.758 408.583 209.116C415.094 209.62 421.304 209.555 422.866 208.302C423.823 207.386 424.611 206.309 425.194 205.12C431.026 203.092 436.096 199.325 439.721 194.328V194.328Z" fill="url(#paint54_linear)"/>
<path d="M161.142 147.556C141.609 130.465 114.752 150.706 109.869 172.68C108.453 178.629 107.086 187.776 105.938 196.802C104.107 211.223 149.072 206.821 149.626 207.276C150.179 207.732 152.637 213.787 159.107 216.163C181.797 200.676 177.842 163.499 161.142 147.556Z" fill="url(#paint55_linear)"/>
<g style="mix-blend-mode:multiply" opacity="0.5">
<path d="M317.075 361.63L279.564 364.194L239.743 366.92L227.104 343.701L222.245 334.773L281.656 330.297L317.075 361.63Z" fill="#BFC3DB"/>
</g>
<path d="M318.263 359.278L280.753 361.842L240.931 364.568L228.292 341.349L223.433 332.421L282.844 327.945L318.263 359.278Z" fill="url(#paint56_linear)"/>
<path d="M181.309 259.916L182.757 267.297L205.635 265.1L228.829 257.67L199.132 252.258C199.132 252.258 182.855 222.511 176.068 212.379C173.927 209.173 167.555 208.375 164.95 207.219L181.309 259.916Z" fill="url(#paint57_linear)"/>
<g style="mix-blend-mode:multiply" opacity="0.5">
<path d="M185.207 310.382H266.592L266.877 306.427L186.753 304.075L185.207 310.382Z" fill="#BFC3DB"/>
</g>
<path d="M186.485 308.405H267.869L268.154 304.449H186.729L186.485 308.405Z" fill="#CF507A"/>
<path d="M189.472 259.574L186.729 304.449H268.154L271.402 259.574H189.472Z" fill="#D5527E"/>
<path d="M175.164 285.853C175.164 285.853 172.511 286.968 171.567 288.189L170.753 298.321C170.753 298.321 177.06 301.813 181.789 303.204C184.729 303.899 187.725 304.332 190.741 304.498C194.566 304.791 199.547 305.117 199.368 303.684C199.189 302.252 192.499 302.814 192.271 301.91C192.043 301.007 202.851 301.316 202.851 299.632C202.851 297.947 191.929 299.29 191.929 298.508C191.929 297.727 205.333 297.849 205.333 296.254C205.333 294.228 191.848 295.66 192.157 294.342C192.336 293.528 204.544 293.78 204.43 292.201C204.316 290.622 197.675 291.298 193.614 290.964C189.553 290.63 185.394 288.938 184.784 287.131C184.173 285.324 193.834 283.192 192.825 281.841C191.815 280.49 175.197 285.91 175.197 285.91" fill="#572500"/>
<path d="M152.686 202.808C159.541 202.395 166.324 204.393 171.86 208.456C174.103 210.116 176.061 212.131 177.655 214.422C182.668 221.746 185.044 245.853 182.79 267.322L136.344 276.632C139.404 277.886 165.17 284.982 175.937 285.397C169.858 288.775 171.868 299.591 171.868 299.591C146.639 299.054 117.723 296.824 112.726 276.958C108.909 261.796 106.785 239.448 106.622 230.259C106.394 217.832 112.775 211.109 119.163 207.919C125.552 204.729 140.022 203.476 140.022 203.476L152.686 202.808Z" fill="url(#paint58_linear)"/>
<path d="M172.544 152.325C172.438 153.505 172.291 154.677 172.129 155.825C170.566 149.835 160.344 143.048 148.763 144.106C148.763 144.106 148.763 145.505 146.582 145.896C144.401 146.287 143.44 143.568 142.952 145.896C142.464 148.224 142.472 151.365 139.811 151.365C137.149 151.365 135.449 153.042 135.237 154.751C135.025 156.46 139.493 162.531 137.239 164.028C134.659 165.738 132.795 172.167 132.795 172.167C132.795 172.167 130.785 157.314 122.785 166.014C122.224 167.642 121.743 169.221 121.345 170.824C120.97 168.496 121.572 166.682 122.858 165.526C123.219 165.195 123.628 164.921 124.071 164.712C122.819 160.763 122.166 156.648 122.134 152.504C122.107 150.13 122.381 147.762 122.948 145.456C126.114 133.249 141.943 129.668 152.246 130.376C162.55 131.084 173.488 140.834 172.544 152.325Z" fill="url(#paint59_linear)"/>
<path d="M127.684 186.092C130.588 190.372 134.386 193.972 138.816 196.642C143.247 199.311 148.204 200.988 153.345 201.555L153.272 200.18L153.19 198.487C145.866 196.314 137.027 191.219 126.773 180.582L126.993 180.834C127.299 182.341 127.508 183.866 127.619 185.4C127.636 185.595 127.66 185.848 127.684 186.092Z" fill="url(#paint60_linear)"/>
<path d="M128.132 169.261C128.132 169.261 125.747 166.446 124.396 168.822C123.046 171.198 125.715 174.885 125.715 174.885L128.132 169.261Z" fill="url(#paint61_linear)"/>
<path d="M130.525 213.925C130.525 213.925 152.971 230.202 158.464 229.193C163.958 228.184 159.685 207.219 159.685 207.219" stroke="white" stroke-miterlimit="10"/>
<path d="M188.446 196.542C190.758 201.571 189.26 208.391 186.078 212.07C183.262 215.325 183.824 219.224 181.512 221.226C176.833 214.056 172.56 207.659 165.17 204.778C178.452 190.194 159.848 163.866 158.472 158.551L132.73 174.893C132.73 174.893 140.38 193.848 130.012 207.488C127.823 210.369 118.26 228.746 108.339 224.041C102.415 221.226 106.297 215.48 104.889 213.925C100.062 208.595 94.8213 202.947 97.2873 198.552C99.7532 194.157 98.8254 196.241 96.4734 193.555C94.1214 190.869 95.1794 187.044 96.9699 184.603C98.7603 182.161 94.5283 174.836 97.1001 171.988C102.634 165.9 101.405 159.78 100.738 157.648C100.071 155.516 102.048 153.579 103.611 152.496C105.173 151.414 105.621 148.671 105.328 144.293C105.035 139.914 108.819 138.343 109.943 137.212C112.856 134.258 112.702 132.915 113.499 129.733C114.923 124.036 124.25 124.036 129.581 123.955C134.911 123.873 133.365 116.378 145.752 119.373C147.729 119.853 150.407 124.036 156.999 122.677C163.949 121.236 171.827 127.877 171.364 131.182C170.9 134.486 180.023 134.706 180.698 145.082C180.698 145.351 180.739 145.652 180.763 145.977C181.036 148.951 181.994 151.82 183.563 154.36C184.186 155.392 184.707 156.482 185.118 157.615C186.639 161.831 183.937 166.063 185.118 169.75C186.298 173.437 188.373 178.954 186.037 184.399C183.343 190.617 187.396 194.255 188.446 196.542Z" fill="url(#paint62_linear)"/>
<path d="M173.113 182.34C170.81 192.358 161.524 196.916 155.51 198.194C154.932 198.308 154.387 198.397 153.882 198.454C153.638 198.454 153.41 198.519 153.19 198.536L153.272 200.228L153.426 202.385L153.557 204.298L157.837 222.218C157.956 222.716 157.92 223.238 157.736 223.714C157.551 224.191 157.225 224.601 156.803 224.888C156.38 225.176 155.88 225.329 155.368 225.326C154.857 225.323 154.358 225.164 153.939 224.872C145.353 218.882 130.183 210.515 130.012 207.488C130.012 207.488 129.125 202.873 127.912 188.843C127.839 187.964 127.766 187.052 127.684 186.1C127.684 185.856 127.636 185.62 127.619 185.392C127.619 184.92 127.514 184.35 127.448 183.764C127.367 182.767 127.214 181.777 126.993 180.802C126.913 180.724 126.839 180.639 126.773 180.55C123.412 176.757 121.727 173.428 121.32 170.783C121.548 169.856 121.808 168.928 122.093 168.008C122.557 166.334 123.617 164.887 125.072 163.939C131.16 160.163 132.771 172.077 132.771 172.077C132.771 172.077 153.345 167.821 158.432 143.788C159.788 143.525 161.184 143.542 162.533 143.839C163.882 144.135 165.156 144.705 166.277 145.513C168.719 147.206 170.981 150.299 172.129 155.768C171.665 159.023 171.103 162.173 171.372 165.127C171.722 169.213 174.733 175.325 173.113 182.34Z" fill="url(#paint63_linear)"/>
<path d="M166.277 145.57C163.119 153.79 158.139 161.449 148.161 167.105C137.182 173.388 132.795 172.134 132.795 172.134C132.795 172.134 153.369 167.878 158.456 143.845C159.808 143.585 161.2 143.604 162.544 143.901C163.889 144.197 165.159 144.766 166.277 145.57V145.57Z" fill="url(#paint64_linear)"/>
<path d="M153.272 200.196L153.426 202.352C145.646 201.425 136.336 198.218 127.912 188.843C127.839 187.964 127.766 187.052 127.684 186.1C127.684 185.856 127.636 185.62 127.619 185.392C127.619 184.92 127.514 184.35 127.448 183.764C137.735 192.074 146.484 196.411 153.882 198.413C153.638 198.413 153.41 198.479 153.19 198.495L153.272 200.196Z" fill="url(#paint65_linear)"/>
<path d="M97.9791 336.629C97.9791 341.781 87.041 345.964 73.5637 345.964C60.0864 345.964 49.1483 341.789 49.1483 336.629C49.1483 324.307 60.0864 327.294 73.5637 327.294C87.041 327.294 97.9791 324.315 97.9791 336.629Z" fill="#2D2E64"/>
<path d="M73.5555 342.603C87.0443 342.603 97.979 338.423 97.979 333.268C97.979 328.112 87.0443 323.933 73.5555 323.933C60.0668 323.933 49.132 328.112 49.132 333.268C49.132 338.423 60.0668 342.603 73.5555 342.603Z" fill="url(#paint66_linear)"/>
<path d="M73.5555 333.268L54.1209 300.169L74.8414 265.1" stroke="url(#paint67_linear)" stroke-width="4.15" stroke-miterlimit="10"/>
<path d="M105.816 264.416L84.1111 284.885L69.1852 265.8C67.2275 263.305 66.274 260.168 66.5119 257.005C66.7499 253.843 68.1621 250.883 70.471 248.709C72.7698 246.54 75.7947 245.305 78.9551 245.246C82.1154 245.187 85.1841 246.309 87.5618 248.392L105.816 264.416Z" fill="url(#paint68_linear)"/>
<defs>
<linearGradient id="paint0_linear" x1="0.203568" y1="192.432" x2="510.078" y2="192.432" gradientUnits="userSpaceOnUse">
<stop stop-color="#F0F2F5"/>
<stop offset="0.99" stop-color="#F5F7F8"/>
</linearGradient>
<linearGradient id="paint1_linear" x1="1.9452" y1="122.498" x2="249.957" y2="122.498" gradientUnits="userSpaceOnUse">
<stop offset="0.01" stop-color="#BBBFD9"/>
<stop offset="1" stop-color="#D6DBF8"/>
</linearGradient>
<linearGradient id="paint2_linear" x1="498.261" y1="272.067" x2="394.496" y2="225.677" gradientUnits="userSpaceOnUse">
<stop offset="0.01" stop-color="#BBBFD9"/>
<stop offset="0.29" stop-color="#CACDE2"/>
<stop offset="0.84" stop-color="#F2F3F8"/>
<stop offset="1" stop-color="white"/>
</linearGradient>
<linearGradient id="paint3_linear" x1="388.872" y1="263.586" x2="367.859" y2="250.825" gradientUnits="userSpaceOnUse">
<stop offset="0.32" stop-color="#9C9C9C"/>
<stop offset="0.5" stop-color="#ABABAB"/>
<stop offset="0.86" stop-color="#D3D3D3"/>
<stop offset="0.91" stop-color="#D9D9D9"/>
</linearGradient>
<linearGradient id="paint4_linear" x1="371.48" y1="267.208" x2="474.098" y2="267.208" gradientUnits="userSpaceOnUse">
<stop offset="0.09" stop-color="#D9D9D9"/>
<stop offset="0.12" stop-color="#D6D6D6"/>
<stop offset="0.7" stop-color="#AEAEAE"/>
<stop offset="1" stop-color="#9F9F9F"/>
</linearGradient>
<linearGradient id="paint5_linear" x1="227.722" y1="239.374" x2="242.917" y2="239.374" gradientUnits="userSpaceOnUse">
<stop stop-color="#753200"/>
<stop offset="1" stop-color="#A04400"/>
</linearGradient>
<linearGradient id="paint6_linear" x1="281.745" y1="261.568" x2="279.198" y2="239.147" gradientUnits="userSpaceOnUse">
<stop stop-color="#464B8B"/>
<stop offset="0.28" stop-color="#393C76"/>
<stop offset="0.74" stop-color="#27275A"/>
<stop offset="1" stop-color="#201F4F"/>
</linearGradient>
<linearGradient id="paint7_linear" x1="262.84" y1="167.976" x2="303.907" y2="167.976" gradientUnits="userSpaceOnUse">
<stop offset="0.09" stop-color="#E6E6E6"/>
<stop offset="1" stop-color="#DEDEDE"/>
</linearGradient>
<linearGradient id="paint8_linear" x1="205.277" y1="172.908" x2="271.548" y2="172.908" gradientUnits="userSpaceOnUse">
<stop stop-color="#201F4F"/>
<stop offset="0.26" stop-color="#27275A"/>
<stop offset="0.72" stop-color="#393C76"/>
<stop offset="1" stop-color="#464B8B"/>
</linearGradient>
<linearGradient id="paint9_linear" x1="11042.1" y1="43301.3" x2="25342.7" y2="37481.1" gradientUnits="userSpaceOnUse">
<stop offset="0.01" stop-color="#BBBFD9"/>
<stop offset="0.29" stop-color="#CACDE2"/>
<stop offset="0.84" stop-color="#F2F3F8"/>
<stop offset="1" stop-color="white"/>
</linearGradient>
<linearGradient id="paint10_linear" x1="6548" y1="7051.46" x2="6493.45" y2="6366.92" gradientUnits="userSpaceOnUse">
<stop stop-color="#464B8B"/>
<stop offset="0.28" stop-color="#393C76"/>
<stop offset="0.74" stop-color="#27275A"/>
<stop offset="1" stop-color="#201F4F"/>
</linearGradient>
<linearGradient id="paint11_linear" x1="182966" y1="14844.7" x2="177150" y2="13760.9" gradientUnits="userSpaceOnUse">
<stop stop-color="#753200"/>
<stop offset="1" stop-color="#A04400"/>
</linearGradient>
<linearGradient id="paint12_linear" x1="256.852" y1="80.4151" x2="283.614" y2="101.853" gradientUnits="userSpaceOnUse">
<stop stop-color="#A04400"/>
<stop offset="1" stop-color="#753200"/>
</linearGradient>
<linearGradient id="paint13_linear" x1="11742.8" y1="1232.7" x2="11770.9" y2="1245.68" gradientUnits="userSpaceOnUse">
<stop stop-color="#753200"/>
<stop offset="1" stop-color="#A04400"/>
</linearGradient>
<linearGradient id="paint14_linear" x1="2120.09" y1="1488.7" x2="2157.72" y2="1488.7" gradientUnits="userSpaceOnUse">
<stop stop-color="#464B8B"/>
<stop offset="0.28" stop-color="#393C76"/>
<stop offset="0.74" stop-color="#27275A"/>
<stop offset="1" stop-color="#201F4F"/>
</linearGradient>
<linearGradient id="paint15_linear" x1="2115.66" y1="1669.8" x2="2153.29" y2="1669.8" gradientUnits="userSpaceOnUse">
<stop stop-color="#464B8B"/>
<stop offset="0.28" stop-color="#393C76"/>
<stop offset="0.74" stop-color="#27275A"/>
<stop offset="1" stop-color="#201F4F"/>
</linearGradient>
<linearGradient id="paint16_linear" x1="2098.57" y1="1853.77" x2="2136.2" y2="1853.77" gradientUnits="userSpaceOnUse">
<stop stop-color="#464B8B"/>
<stop offset="0.28" stop-color="#393C76"/>
<stop offset="0.74" stop-color="#27275A"/>
<stop offset="1" stop-color="#201F4F"/>
</linearGradient>
<linearGradient id="paint17_linear" x1="2076.99" y1="2059.06" x2="2114.62" y2="2059.06" gradientUnits="userSpaceOnUse">
<stop stop-color="#464B8B"/>
<stop offset="0.28" stop-color="#393C76"/>
<stop offset="0.74" stop-color="#27275A"/>
<stop offset="1" stop-color="#201F4F"/>
</linearGradient>
<linearGradient id="paint18_linear" x1="2044.5" y1="2281.51" x2="2082.13" y2="2281.51" gradientUnits="userSpaceOnUse">
<stop stop-color="#464B8B"/>
<stop offset="0.28" stop-color="#393C76"/>
<stop offset="0.74" stop-color="#27275A"/>
<stop offset="1" stop-color="#201F4F"/>
</linearGradient>
<linearGradient id="paint19_linear" x1="2621.87" y1="413.94" x2="2671.99" y2="413.94" gradientUnits="userSpaceOnUse">
<stop stop-color="#464B8B"/>
<stop offset="0.28" stop-color="#393C76"/>
<stop offset="0.74" stop-color="#27275A"/>
<stop offset="1" stop-color="#201F4F"/>
</linearGradient>
<linearGradient id="paint20_linear" x1="2643.59" y1="470.509" x2="2693.72" y2="470.509" gradientUnits="userSpaceOnUse">
<stop stop-color="#464B8B"/>
<stop offset="0.28" stop-color="#393C76"/>
<stop offset="0.74" stop-color="#27275A"/>
<stop offset="1" stop-color="#201F4F"/>
</linearGradient>
<linearGradient id="paint21_linear" x1="2807.21" y1="357.293" x2="2861.86" y2="357.293" gradientUnits="userSpaceOnUse">
<stop stop-color="#464B8B"/>
<stop offset="0.28" stop-color="#393C76"/>
<stop offset="0.74" stop-color="#27275A"/>
<stop offset="1" stop-color="#201F4F"/>
</linearGradient>
<linearGradient id="paint22_linear" x1="2822.71" y1="399.357" x2="2877.3" y2="399.357" gradientUnits="userSpaceOnUse">
<stop stop-color="#464B8B"/>
<stop offset="0.28" stop-color="#393C76"/>
<stop offset="0.74" stop-color="#27275A"/>
<stop offset="1" stop-color="#201F4F"/>
</linearGradient>
<linearGradient id="paint23_linear" x1="2851.72" y1="841.383" x2="2908.28" y2="841.383" gradientUnits="userSpaceOnUse">
<stop stop-color="#464B8B"/>
<stop offset="0.28" stop-color="#393C76"/>
<stop offset="0.74" stop-color="#27275A"/>
<stop offset="1" stop-color="#201F4F"/>
</linearGradient>
<linearGradient id="paint24_linear" x1="7656.68" y1="33220.2" x2="8126.52" y2="33220.2" gradientUnits="userSpaceOnUse">
<stop stop-color="#201F4F"/>
<stop offset="0.26" stop-color="#27275A"/>
<stop offset="0.72" stop-color="#393C76"/>
<stop offset="1" stop-color="#464B8B"/>
</linearGradient>
<linearGradient id="paint25_linear" x1="6634.87" y1="2682.77" x2="6638.9" y2="2489.18" gradientUnits="userSpaceOnUse">
<stop stop-color="#201F4F"/>
<stop offset="0.26" stop-color="#27275A"/>
<stop offset="0.72" stop-color="#393C76"/>
<stop offset="1" stop-color="#464B8B"/>
</linearGradient>
<linearGradient id="paint26_linear" x1="6634.87" y1="2667.28" x2="6638.9" y2="2473.69" gradientUnits="userSpaceOnUse">
<stop stop-color="#464B8B"/>
<stop offset="0.28" stop-color="#393C76"/>
<stop offset="0.74" stop-color="#27275A"/>
<stop offset="1" stop-color="#201F4F"/>
</linearGradient>
<linearGradient id="paint27_linear" x1="7300.73" y1="36358.1" x2="7983.55" y2="36358.1" gradientUnits="userSpaceOnUse">
<stop stop-color="#464B8B"/>
<stop offset="0.28" stop-color="#393C76"/>
<stop offset="0.74" stop-color="#27275A"/>
<stop offset="1" stop-color="#201F4F"/>
</linearGradient>
<linearGradient id="paint28_linear" x1="253.831" y1="426.73" x2="253.831" y2="256.815" gradientUnits="userSpaceOnUse">
<stop offset="0.31" stop-color="white"/>
<stop offset="0.44" stop-color="#ECEDF4"/>
<stop offset="0.69" stop-color="#CACDE2"/>
<stop offset="0.99" stop-color="#BBBFD9"/>
</linearGradient>
<linearGradient id="paint29_linear" x1="38637.7" y1="46056.7" x2="39458" y2="39001.3" gradientUnits="userSpaceOnUse">
<stop offset="0.01" stop-color="#BBBFD9"/>
<stop offset="0.29" stop-color="#CACDE2"/>
<stop offset="0.84" stop-color="#F2F3F8"/>
<stop offset="1" stop-color="white"/>
</linearGradient>
<linearGradient id="paint30_linear" x1="15346.4" y1="10999.4" x2="14701.7" y2="10677.9" gradientUnits="userSpaceOnUse">
<stop stop-color="#A04400"/>
<stop offset="1" stop-color="#753200"/>
</linearGradient>
<linearGradient id="paint31_linear" x1="421.621" y1="287.294" x2="447.526" y2="287.294" gradientUnits="userSpaceOnUse">
<stop stop-color="#C2C2C2"/>
<stop offset="1" stop-color="#BDBDBD"/>
</linearGradient>
<linearGradient id="paint32_linear" x1="32216.1" y1="26357.6" x2="33377.7" y2="23585.2" gradientUnits="userSpaceOnUse">
<stop offset="0.01" stop-color="#BBBFD9"/>
<stop offset="0.29" stop-color="#CACDE2"/>
<stop offset="0.84" stop-color="#F2F3F8"/>
<stop offset="1" stop-color="white"/>
</linearGradient>
<linearGradient id="paint33_linear" x1="27867.2" y1="14736.4" x2="25502.6" y2="12342.8" gradientUnits="userSpaceOnUse">
<stop stop-color="#753200"/>
<stop offset="1" stop-color="#A04400"/>
</linearGradient>
<linearGradient id="paint34_linear" x1="409.283" y1="164.647" x2="424.47" y2="161.4" gradientUnits="userSpaceOnUse">
<stop stop-color="#A04400" stop-opacity="0"/>
<stop offset="0.18" stop-color="#9A4100" stop-opacity="0.14"/>
<stop offset="0.52" stop-color="#8A3B00" stop-opacity="0.52"/>
<stop offset="0.9" stop-color="#753200"/>
</linearGradient>
<linearGradient id="paint35_linear" x1="4333.44" y1="2602.93" x2="4412.23" y2="2602.93" gradientUnits="userSpaceOnUse">
<stop stop-color="#753200"/>
<stop offset="1" stop-color="#A04400"/>
</linearGradient>
<linearGradient id="paint36_linear" x1="20162.2" y1="16577.2" x2="17865.3" y2="14981.9" gradientUnits="userSpaceOnUse">
<stop stop-color="#753200"/>
<stop offset="1" stop-color="#A04400"/>
</linearGradient>
<linearGradient id="paint37_linear" x1="6468.14" y1="6571.99" x2="6137.46" y2="6642.05" gradientUnits="userSpaceOnUse">
<stop stop-color="#464B8B"/>
<stop offset="0.28" stop-color="#393C76"/>
<stop offset="0.74" stop-color="#27275A"/>
<stop offset="1" stop-color="#201F4F"/>
</linearGradient>
<linearGradient id="paint38_linear" x1="2871.12" y1="256.675" x2="2946.75" y2="256.675" gradientUnits="userSpaceOnUse">
<stop stop-color="#201F4F"/>
<stop offset="0.26" stop-color="#27275A"/>
<stop offset="0.72" stop-color="#393C76"/>
<stop offset="1" stop-color="#464B8B"/>
</linearGradient>
<linearGradient id="paint39_linear" x1="3984.43" y1="569.56" x2="4108.55" y2="569.56" gradientUnits="userSpaceOnUse">
<stop stop-color="#464B8B"/>
<stop offset="0.28" stop-color="#393C76"/>
<stop offset="0.74" stop-color="#27275A"/>
<stop offset="1" stop-color="#201F4F"/>
</linearGradient>
<linearGradient id="paint40_linear" x1="184.922" y1="363.73" x2="288.688" y2="363.73" gradientUnits="userSpaceOnUse">
<stop offset="0.01" stop-color="#BBBFD9"/>
<stop offset="0.77" stop-color="#CACDE1"/>
<stop offset="1" stop-color="#D0D2E4"/>
</linearGradient>
<linearGradient id="paint41_linear" x1="126.683" y1="382.758" x2="168.287" y2="373.195" gradientUnits="userSpaceOnUse">
<stop stop-color="#ABAAEA"/>
<stop offset="1" stop-color="#E7EEFE"/>
</linearGradient>
<linearGradient id="paint42_linear" x1="128.572" y1="367.311" x2="165.431" y2="367.311" gradientUnits="userSpaceOnUse">
<stop stop-color="#CDCCFF"/>
<stop offset="0.89" stop-color="#8988D5"/>
</linearGradient>
<linearGradient id="paint43_linear" x1="5978.7" y1="18685.4" x2="8153.6" y2="18685.4" gradientUnits="userSpaceOnUse">
<stop stop-color="#201F4F"/>
<stop offset="0.26" stop-color="#27275A"/>
<stop offset="0.72" stop-color="#393C76"/>
<stop offset="1" stop-color="#464B8B"/>
</linearGradient>
<linearGradient id="paint44_linear" x1="138.46" y1="347.274" x2="122.866" y2="341.854" gradientUnits="userSpaceOnUse">
<stop stop-color="#1F1844"/>
<stop offset="0.99" stop-color="#3D3C99"/>
</linearGradient>
<linearGradient id="paint45_linear" x1="3509.9" y1="3560.78" x2="3128.18" y2="3425.33" gradientUnits="userSpaceOnUse">
<stop stop-color="#1F1844"/>
<stop offset="0.99" stop-color="#3D3C99"/>
</linearGradient>
<linearGradient id="paint46_linear" x1="130.789" y1="331.378" x2="135.031" y2="327.08" gradientUnits="userSpaceOnUse">
<stop stop-color="#E0E4EB"/>
<stop offset="0.99" stop-color="#F3F6FD"/>
</linearGradient>
<linearGradient id="paint47_linear" x1="29511.6" y1="-10010.2" x2="29551.8" y2="-10135.7" gradientUnits="userSpaceOnUse">
<stop stop-color="#E0E4EB"/>
<stop offset="0.99" stop-color="#F3F6FD"/>
</linearGradient>
<linearGradient id="paint48_linear" x1="-20090.9" y1="-19635.1" x2="-20014.6" y2="-19540.6" gradientUnits="userSpaceOnUse">
<stop stop-color="#E0E4EB"/>
<stop offset="0.99" stop-color="#F3F6FD"/>
</linearGradient>
<linearGradient id="paint49_linear" x1="-16890.3" y1="-26536.4" x2="-16830.5" y2="-26434.1" gradientUnits="userSpaceOnUse">
<stop stop-color="#E0E4EB"/>
<stop offset="0.99" stop-color="#F3F6FD"/>
</linearGradient>
<linearGradient id="paint50_linear" x1="13760.3" y1="37470.6" x2="13847.7" y2="37449.8" gradientUnits="userSpaceOnUse">
<stop stop-color="#E0E4EB"/>
<stop offset="0.99" stop-color="#F3F6FD"/>
</linearGradient>
<linearGradient id="paint51_linear" x1="21289.7" y1="-17354.5" x2="21295.4" y2="-17495.3" gradientUnits="userSpaceOnUse">
<stop stop-color="#E0E4EB"/>
<stop offset="0.99" stop-color="#F3F6FD"/>
</linearGradient>
<linearGradient id="paint52_linear" x1="-12897.2" y1="-30040.3" x2="-12854.4" y2="-29927.2" gradientUnits="userSpaceOnUse">
<stop stop-color="#E0E4EB"/>
<stop offset="0.99" stop-color="#F3F6FD"/>
</linearGradient>
<linearGradient id="paint53_linear" x1="146.175" y1="304.751" x2="141.601" y2="323.445" gradientUnits="userSpaceOnUse">
<stop stop-color="#E6EAF1"/>
<stop offset="0.99" stop-color="#F3F6FD"/>
</linearGradient>
<linearGradient id="paint54_linear" x1="16952.5" y1="6074.55" x2="18330.3" y2="5252.52" gradientUnits="userSpaceOnUse">
<stop stop-color="#753200"/>
<stop offset="1" stop-color="#A04400"/>
</linearGradient>
<linearGradient id="paint55_linear" x1="137.329" y1="207.586" x2="148.022" y2="148.997" gradientUnits="userSpaceOnUse">
<stop offset="0.38" stop-color="#201F4F"/>
<stop offset="0.54" stop-color="#27275A"/>
<stop offset="0.83" stop-color="#393C76"/>
<stop offset="1" stop-color="#464B8B"/>
</linearGradient>
<linearGradient id="paint56_linear" x1="223.433" y1="346.257" x2="318.263" y2="346.257" gradientUnits="userSpaceOnUse">
<stop stop-color="white"/>
<stop offset="0.16" stop-color="#F2F3F8"/>
<stop offset="0.71" stop-color="#CACDE2"/>
<stop offset="0.99" stop-color="#BBBFD9"/>
</linearGradient>
<linearGradient id="paint57_linear" x1="189.862" y1="268.209" x2="195.559" y2="239.114" gradientUnits="userSpaceOnUse">
<stop offset="0.11" stop-color="#8988D5"/>
<stop offset="0.56" stop-color="#9D9CE8"/>
<stop offset="1" stop-color="#A7A5EE"/>
</linearGradient>
<linearGradient id="paint58_linear" x1="106.598" y1="251.167" x2="183.612" y2="251.167" gradientUnits="userSpaceOnUse">
<stop stop-color="#A7A5EE"/>
<stop offset="0.44" stop-color="#9D9CE8"/>
<stop offset="0.89" stop-color="#8988D5"/>
</linearGradient>
<linearGradient id="paint59_linear" x1="6906.67" y1="11986.3" x2="10475.3" y2="9960.23" gradientUnits="userSpaceOnUse">
<stop stop-color="#753200"/>
<stop offset="1" stop-color="#A04400"/>
</linearGradient>
<linearGradient id="paint60_linear" x1="93735.5" y1="-1534.53" x2="94421.9" y2="-976.986" gradientUnits="userSpaceOnUse">
<stop stop-color="#A04400"/>
<stop offset="1" stop-color="#753200"/>
</linearGradient>
<linearGradient id="paint61_linear" x1="12704" y1="3163.24" x2="12727.3" y2="3170.73" gradientUnits="userSpaceOnUse">
<stop stop-color="#753200"/>
<stop offset="1" stop-color="#A04400"/>
</linearGradient>
<linearGradient id="paint62_linear" x1="12065.8" y1="30470.8" x2="23024" y2="30470.8" gradientUnits="userSpaceOnUse">
<stop stop-color="#201F4F"/>
<stop offset="0.26" stop-color="#27275A"/>
<stop offset="0.72" stop-color="#393C76"/>
<stop offset="1" stop-color="#464B8B"/>
</linearGradient>
<linearGradient id="paint63_linear" x1="171.949" y1="187.54" x2="120.156" y2="176" gradientUnits="userSpaceOnUse">
<stop stop-color="#401B00"/>
<stop offset="1" stop-color="#823700"/>
</linearGradient>
<linearGradient id="paint64_linear" x1="140.852" y1="171.654" x2="168.32" y2="136.455" gradientUnits="userSpaceOnUse">
<stop stop-color="#A04400" stop-opacity="0"/>
<stop offset="0.17" stop-color="#813700" stop-opacity="0.31"/>
<stop offset="0.44" stop-color="#5B2700" stop-opacity="0.69"/>
<stop offset="0.69" stop-color="#451D00" stop-opacity="0.92"/>
<stop offset="0.9" stop-color="#3D1A00"/>
</linearGradient>
<linearGradient id="paint65_linear" x1="122.915" y1="185.034" x2="149.772" y2="199.952" gradientUnits="userSpaceOnUse">
<stop stop-color="#A04400"/>
<stop offset="1" stop-color="#3D1B00"/>
</linearGradient>
<linearGradient id="paint66_linear" x1="4944.1" y1="9753.8" x2="4944.1" y2="9258.49" gradientUnits="userSpaceOnUse">
<stop stop-color="#201F4F"/>
<stop offset="0.26" stop-color="#27275A"/>
<stop offset="0.72" stop-color="#393C76"/>
<stop offset="1" stop-color="#464B8B"/>
</linearGradient>
<linearGradient id="paint67_linear" x1="1893.07" y1="33360.6" x2="1893.07" y2="27507" gradientUnits="userSpaceOnUse">
<stop stop-color="#201F4F"/>
<stop offset="0.26" stop-color="#27275A"/>
<stop offset="0.72" stop-color="#393C76"/>
<stop offset="1" stop-color="#464B8B"/>
</linearGradient>
<linearGradient id="paint68_linear" x1="78891.4" y1="11243" x2="77693.1" y2="9975.24" gradientUnits="userSpaceOnUse">
<stop stop-color="#201F4F"/>
<stop offset="0.26" stop-color="#27275A"/>
<stop offset="0.72" stop-color="#393C76"/>
<stop offset="1" stop-color="#464B8B"/>
</linearGradient>
</defs>
</svg>
