<svg width="627" height="531" viewBox="0 0 627 531" fill="none" xmlns="http://www.w3.org/2000/svg">
<path d="M605.13 278C550.13 165.53 392.76 0.789948 188.29 0.369948C-25.07 -0.0700522 -45.71 211.54 69.29 270.37C184.29 329.2 16.15 402.54 136.35 476.21C258 550.77 518 543.77 582 485.77C646 427.77 628.9 326.64 605.13 278Z" fill="url(#paint0_linear)"/>
<path d="M88.39 429.6C88.39 429.6 109.62 405.97 107.39 396.65C105.16 387.33 118.31 376.02 118.57 362.46C118.86 347.1 110.65 351.2 107.81 344.63C103.6 334.89 112.97 326.27 98.81 322.54C89.1 320 82.3 325 83.18 313C84.06 301 79.73 286.2 72 280.82C60.92 273.14 38.39 272.53 46 288.02C54 304.3 46.95 331.11 45.09 338.45C25.39 416 88.39 429.6 88.39 429.6Z" fill="url(#paint1_linear)"/>
<path d="M64.7001 296.78C67.1301 316.78 92.2501 348.78 80.8701 370.21C69.4901 391.64 86.7401 424.71 86.7401 424.71" stroke="url(#paint2_linear)" stroke-width="0.73" stroke-miterlimit="10"/>
<path d="M152.72 384.85C138.93 389.72 153.86 407.56 138.78 415.59C123.7 423.62 104.37 427.7 103.49 423.8C103.43 423.54 102.62 420.95 101.76 417.17C101.56 416.3 101.37 415.35 101.17 414.36C101.17 414.08 101.07 413.8 101.01 413.52C100.447 410.502 100.066 407.453 99.8701 404.39C99.8701 404.3 99.8701 404.2 99.8701 404.11C99.8001 402.89 99.7801 401.67 99.8001 400.45C99.8201 399.23 99.8901 398.11 100.01 396.97C100.46 392.63 101.7 388.63 104.24 385.76C104.888 385.005 105.627 384.333 106.44 383.76C116.92 376.47 121.1 380.01 121.02 369.24C120.88 350.78 126.14 348.02 132.32 349.85C138.5 351.68 143.32 352.18 144.24 345.36C145.16 338.54 139.56 308.13 153.61 308.19C177.95 308.27 165.61 339.33 163.18 344.37C157.28 356.45 169.55 358.37 172.46 367.15C175.37 375.93 166.5 380 152.72 384.85Z" fill="url(#paint3_linear)"/>
<path d="M100.79 450.32C100.79 450.32 97.09 416.32 122.98 397.32C134.68 388.72 156.42 358.01 154.45 324.78" stroke="url(#paint4_linear)" stroke-width="2.1" stroke-miterlimit="10"/>
<path d="M64.4901 355.82C67.7101 350.37 90.8301 372.82 86.7801 377.82C82.7301 382.82 61.4301 361 64.4901 355.82Z" fill="url(#paint5_linear)"/>
<path d="M58.6501 386.5C59.1101 380.15 87.0301 389.28 85.5901 395.56C84.1501 401.84 58.2101 392.56 58.6501 386.5Z" fill="url(#paint6_linear)"/>
<path d="M111.35 358.47C116.29 362.34 91.88 383.37 87.53 378.71C83.18 374.05 106.64 354.78 111.35 358.47Z" fill="url(#paint7_linear)"/>
<path d="M108.79 385C112.95 389.7 89.38 401.51 85.79 396.18C82.2 390.85 104.83 380.48 108.79 385Z" fill="url(#paint8_linear)"/>
<path d="M60.5101 409.34C59.2901 403.51 90.0601 406.87 90.3301 412.87C90.6001 418.87 61.6701 414.89 60.5101 409.34Z" fill="url(#paint9_linear)"/>
<path d="M107.29 402.54C110.48 407.94 88.4301 421.4 85.8701 415.54C83.3101 409.68 104.25 397.4 107.29 402.54Z" fill="url(#paint10_linear)"/>
<path d="M95.13 329.59C101.34 330.04 93.31 361.34 87.13 359.89C80.95 358.44 89.21 329.16 95.13 329.59Z" fill="url(#paint11_linear)"/>
<path d="M66.82 354.34C70.04 348.89 93.16 371.34 89.11 376.34C85.06 381.34 63.76 359.53 66.82 354.34Z" fill="url(#paint12_linear)"/>
<path d="M60.5101 385.2C60.9701 378.85 88.89 387.98 87.45 394.26C86.01 400.54 60.0701 391.25 60.5101 385.2Z" fill="url(#paint13_linear)"/>
<path d="M112.29 357.07C117.23 360.94 92.8201 381.97 88.4701 377.31C84.1201 372.65 107.58 353.38 112.29 357.07Z" fill="url(#paint14_linear)"/>
<path d="M100.52 395.76C100.95 391.5 102.14 387.57 104.58 384.76C107.58 384.17 110.01 384.29 111.09 385.51C113.39 388.11 107.14 392.92 100.52 395.76Z" fill="url(#paint15_linear)"/>
<path d="M110 384C114.16 388.7 90.5901 400.51 87.0001 395.18C83.4101 389.85 106 379.48 110 384Z" fill="url(#paint16_linear)"/>
<path d="M88.8301 352.51C88.8301 352.51 89.5401 368.77 87.3901 382.96C85.2401 397.15 90.6701 421.16 99.5101 428.84" stroke="url(#paint17_linear)" stroke-width="1.22" stroke-miterlimit="10"/>
<path d="M60.5101 408.22C59.2901 402.39 90.0601 405.75 90.3301 411.75C90.6001 417.75 61.6701 413.78 60.5101 408.22Z" fill="url(#paint18_linear)"/>
<path d="M101.64 412.84C101.64 412.57 101.54 412.29 101.49 412.01C100.949 409.034 100.585 406.029 100.4 403.01C100.4 402.92 100.4 402.82 100.4 402.73C105.4 399.95 110.79 398.55 112.2 400.95C114 404 107.83 409.59 101.64 412.84Z" fill="url(#paint19_linear)"/>
<path d="M111.06 398.69C114.25 404.09 92.2 417.55 89.64 411.69C87.08 405.83 108 393.55 111.06 398.69Z" fill="url(#paint20_linear)"/>
<path d="M96.64 329.18C102.85 329.63 94.82 360.93 88.64 359.48C82.46 358.03 90.72 328.75 96.64 329.18Z" fill="url(#paint21_linear)"/>
<path d="M102 479.34H82.84C78.6707 479.341 74.6425 477.829 71.5033 475.085C68.364 472.342 66.3269 468.552 65.77 464.42L61 429.22C60.9287 428.654 60.9792 428.08 61.148 427.535C61.3169 426.991 61.6002 426.489 61.979 426.062C62.3578 425.636 62.8233 425.296 63.3443 425.064C63.8654 424.833 64.4299 424.715 65 424.72H119.87C120.436 424.724 120.995 424.848 121.509 425.084C122.024 425.32 122.483 425.662 122.855 426.088C123.227 426.515 123.505 427.015 123.67 427.557C123.834 428.098 123.882 428.669 123.81 429.23L119 464.42C118.445 468.54 116.418 472.32 113.293 475.062C110.169 477.805 106.157 479.324 102 479.34V479.34Z" fill="url(#paint22_linear)"/>
<path d="M516.38 34.0599H335.03C325.923 34.0599 318.54 41.4428 318.54 50.5499V461.43C318.54 470.537 325.923 477.92 335.03 477.92H516.38C525.487 477.92 532.87 470.537 532.87 461.43V50.5499C532.87 41.4428 525.487 34.0599 516.38 34.0599Z" fill="#1F1844"/>
<path d="M508.09 52.2699H343.31C336.583 52.2699 331.13 57.7231 331.13 64.4499V447.51C331.13 454.237 336.583 459.69 343.31 459.69H508.09C514.817 459.69 520.27 454.237 520.27 447.51V64.4499C520.27 57.7231 514.817 52.2699 508.09 52.2699Z" fill="#737CBD"/>
<path d="M379.82 45.8499H471.59C471.579 50.9342 469.552 55.8065 465.952 59.397C462.352 62.9875 457.474 65.0026 452.39 64.9999H399C393.911 64.9999 389.03 62.9781 385.431 59.3793C381.832 55.7805 379.81 50.8994 379.81 45.8099V45.8099L379.82 45.8499Z" fill="#1F1844"/>
<path d="M503.86 76.11H458.68C456.36 76.11 454.48 77.9904 454.48 80.31V88.79C454.48 91.1096 456.36 92.99 458.68 92.99H503.86C506.18 92.99 508.06 91.1096 508.06 88.79V80.31C508.06 77.9904 506.18 76.11 503.86 76.11Z" fill="#F0EFF3"/>
<path d="M404.6 108.83H349.82C347.5 108.83 345.62 110.71 345.62 113.03V122.64C345.62 124.96 347.5 126.84 349.82 126.84H404.6C406.92 126.84 408.8 124.96 408.8 122.64V113.03C408.8 110.71 406.92 108.83 404.6 108.83Z" fill="#F0EFF3"/>
<path d="M400.38 81.33H354.04C352.262 81.33 350.82 82.7716 350.82 84.55C350.82 86.3283 352.262 87.77 354.04 87.77H400.38C402.158 87.77 403.6 86.3283 403.6 84.55C403.6 82.7716 402.158 81.33 400.38 81.33Z" fill="#F0EFF3"/>
<path d="M493.41 137.47H358C354.095 137.47 350.93 140.635 350.93 144.54V355.82C350.93 359.725 354.095 362.89 358 362.89H493.41C497.315 362.89 500.48 359.725 500.48 355.82V144.54C500.48 140.635 497.315 137.47 493.41 137.47Z" fill="#F0EFF3"/>
<path d="M493.41 383.68H358C354.095 383.68 350.93 386.845 350.93 390.75V416.5C350.93 420.405 354.095 423.57 358 423.57H493.41C497.315 423.57 500.48 420.405 500.48 416.5V390.75C500.48 386.845 497.315 383.68 493.41 383.68Z" fill="#F0EFF3"/>
<path d="M425.7 264.55C455.954 264.55 480.48 240.024 480.48 209.77C480.48 179.516 455.954 154.99 425.7 154.99C395.446 154.99 370.92 179.516 370.92 209.77C370.92 240.024 395.446 264.55 425.7 264.55Z" stroke="white" stroke-width="6" stroke-miterlimit="10"/>
<path d="M478.29 280.78H373.12C369.028 280.78 365.71 284.097 365.71 288.19V302.56C365.71 306.652 369.028 309.97 373.12 309.97H478.29C482.382 309.97 485.7 306.652 485.7 302.56V288.19C485.7 284.097 482.382 280.78 478.29 280.78Z" fill="white"/>
<path d="M478.29 321.96H373.12C369.028 321.96 365.71 325.278 365.71 329.37V343.74C365.71 347.832 369.028 351.15 373.12 351.15H478.29C482.382 351.15 485.7 347.832 485.7 343.74V329.37C485.7 325.278 482.382 321.96 478.29 321.96Z" fill="white"/>
<path d="M271.86 430.31L275.45 440L274.07 450.01L271.38 452.4L260.11 449.01L257.34 444.73L260.23 429.55L271.86 430.31Z" fill="url(#paint23_linear)"/>
<path d="M230.59 431.56L234.3 438.43L235.78 449.64L232.01 453.61L220.49 451.2L217.36 447.17L218.94 431.81L230.59 431.56Z" fill="url(#paint24_linear)"/>
<path d="M216.25 449.32C216.25 449.32 212.83 450.79 219.34 465.87C220.86 469.39 227.76 471.48 234.49 471.29C241.22 471.1 244.12 470.07 244.59 468.2C245.06 466.33 241.04 460.3 241.04 460.3L216.25 449.32Z" fill="#1F1844"/>
<path d="M216.31 447.82C216.31 447.82 216.24 444.62 217.7 443.87C218.37 447.65 220.21 444.71 222.29 442.58C224.09 440.73 224.81 439.21 228.29 438.94C231.77 438.67 232.82 441.47 234.29 442.58C236.84 444.58 236.89 443.39 237.71 446.27C238.43 448.82 240.65 458.13 242.62 461.87C242.853 462.282 242.948 462.758 242.89 463.228C242.833 463.698 242.626 464.136 242.3 464.48C239.1 467.63 231.88 466.48 227.92 465.82C223.43 465.07 219.38 462.27 217.63 456.29C215.88 450.31 216.31 447.82 216.31 447.82Z" fill="url(#paint25_linear)"/>
<path d="M255.81 451.88V456.2C255.82 456.934 256.093 457.641 256.579 458.191C257.065 458.742 257.733 459.099 258.46 459.2C261.46 459.62 266.36 460.33 269.01 460.85C273.01 461.64 282.66 465.14 288.08 465.49C293.5 465.84 299.63 465.93 302.34 464.18C305.05 462.43 304.44 458.32 304.44 458.32L255.81 451.88Z" fill="#1F1844"/>
<path d="M257.38 440.34C257.38 440.34 254.58 451.01 256.16 452.59C257.74 454.17 269.54 454.95 272.69 456.96C275.84 458.97 288.69 462.12 295.52 461.6C302.35 461.08 304.27 460.2 304.44 458.36C304.61 456.52 290.88 453.99 288.44 452.15C286 450.31 284.5 443.84 281.09 441.65C277.68 439.46 280.3 435.53 276.72 435.35C273.14 435.17 274.1 440.95 268.72 441.3C264.915 441.431 261.109 441.108 257.38 440.34Z" fill="url(#paint26_linear)"/>
<path d="M205.25 247.4L240.19 255.78L258.78 252.39C258.78 252.39 286.78 332.06 288.65 341.11C290.52 350.16 275.25 433.86 275.25 433.86H256.77C256.77 433.86 254.88 410.1 256.77 388.61C258.66 367.12 262.25 355.81 262.25 351.29C262.25 346.77 237.54 299.29 237.54 299.29C237.54 299.29 231.73 327.63 229.45 347.93C225.45 383.75 236.45 436.54 236.45 436.54H215.78C215.78 436.54 208.15 422.06 201.78 386.99C195.41 351.92 208.32 353.38 201.08 325.3C189.47 280.34 205.25 247.4 205.25 247.4Z" fill="#1F1844"/>
<path d="M275.88 294.63C274.748 295.76 273.961 297.189 273.61 298.75C273.377 300.469 273.492 302.217 273.95 303.89C274.38 306.11 274.86 308.3 274.38 310.14C273.9 311.98 273.44 311.95 274.12 312.65C274.8 313.35 277.12 312.87 277.74 311.4C278.36 309.93 279.22 307.4 279.22 307.4C279.78 308.384 280.43 309.314 281.16 310.18C282.16 311.4 282.4 315.57 281.88 317.09C280.8 320.27 279.79 324.09 280.35 325.24C280.91 326.39 283.01 324.18 283.01 324.18C283.01 324.18 287.93 318.03 288.54 314.74C288.89 312.87 289.68 309.96 288.71 306.74C287.74 303.52 285.78 296.29 285.78 296.29L285.69 290.88C285.69 290.88 280.06 290.37 277.02 289.81C276.2 291 276.26 294.32 275.88 294.63Z" fill="url(#paint27_linear)"/>
<path d="M208.71 129.14C207.6 127.4 205.95 122.5 205.22 121.02C207.83 120.7 211.02 123.9 211.62 126.18C210.94 126.27 209.29 128.47 208.71 129.14Z" fill="url(#paint28_linear)"/>
<path d="M230.92 177C238.36 176.3 244.92 165.63 244.92 165.63C245.067 163.189 245.067 160.741 244.92 158.3L242.65 154L240.65 154.55L240.52 153.11C241.1 153.04 237.46 153.76 238.19 153.58C243.28 152.28 251.05 148.06 252.68 139.43C253.82 133.43 251.04 128.29 250.6 124.88C250.16 121.47 251.27 118.88 251.45 114.97C251.67 109.97 248.98 104.06 246.4 102.9C234.77 97.6199 215.8 106.01 215.8 106.01C215.8 106.01 209.55 109.71 213.8 123.14C213.07 122.77 214.75 125.52 213.8 125.44C212.976 125.33 212.138 125.397 211.342 125.635C210.546 125.872 209.809 126.276 209.18 126.82C206.92 129.03 207.44 133.7 213.07 139.56L213.27 139.77C213.583 141.047 213.813 142.343 213.96 143.65C213.96 143.85 214.01 144.05 214.04 144.25C214.34 146.66 214.73 149.78 215.1 152.8C215.63 157.15 215.92 160.92 216.1 162.38C216.39 165.89 223.47 177.74 230.92 177Z" fill="url(#paint29_linear)"/>
<path d="M213.8 123.11C209.57 109.68 215.8 105.98 215.8 105.98C215.8 105.98 234.8 97.59 246.4 102.87C248.22 103.69 248.83 106.31 249.48 108.54C244.73 105.54 236.12 108.07 229.21 109.11C225.9 109.61 227.82 112.98 226.92 113.26C219.4 112.83 215.01 117.12 217.59 127.35L213.85 125.41C214.64 125.31 213.1 122.75 213.8 123.11Z" fill="url(#paint30_linear)"/>
<path d="M204.72 120.29C204.011 117.469 203.674 114.568 203.72 111.66C203.49 103.83 207.65 99.4399 215.05 96.0299L222.23 93.2399C222.88 92.9899 235.06 88.8499 241.74 90.7399C244.24 91.4499 247.9 93.8099 248.4 95.8899C249.69 101.19 250.53 103.99 250.4 108.32C245.05 98.17 242.6 112.32 226.19 104.84C223.19 103.45 224.8 108.71 223.9 108.99C215.42 108.5 210.9 113.99 215.9 127.3C213.56 126.63 211.9 125.72 210.65 125.88C208.55 124.33 205.1 121.53 204.72 120.29Z" fill="#1F1844"/>
<path d="M214 144.22C221.18 153.57 231.82 156.22 238.32 156.8L240.47 155.24C241.05 155.17 237.47 153.74 238.19 153.56C233.33 151.18 219.76 144.39 213.03 139.56L213.23 139.77C213.543 141.047 213.773 142.343 213.92 143.65C214 143.81 214 144 214 144.22Z" fill="url(#paint31_linear)"/>
<path d="M214.31 127C214 126.79 213.07 126.31 213.07 126.31L213 123.64L217.17 125.09C217.566 125.226 217.916 125.47 218.179 125.796C218.443 126.121 218.609 126.514 218.66 126.93L219.8 136.19C225.52 137.93 239.01 143.68 241.22 143.49C244.03 143.24 244.06 139.64 245.71 140.04C247.36 140.44 247.71 142.52 248.71 142.26C250.417 140.919 251.83 139.241 252.86 137.33C252.86 137.33 252.6 143.5 252.48 144.6C252.22 147.15 248.37 153.17 248.37 153.17C248.182 153.496 247.923 153.774 247.611 153.984C247.298 154.194 246.943 154.329 246.57 154.38L240.01 155.27L236.3 154.12C231.18 152.72 218.23 145.3 217.83 143.93C215.48 135.92 217.44 129.14 214.31 127Z" fill="#1F1844"/>
<path d="M213.84 129.83C213.84 129.83 211.71 127.51 210.63 129.59C209.55 131.67 211.97 134.72 211.97 134.72L213.84 129.83Z" fill="url(#paint32_linear)"/>
<path d="M208.4 154.45C208.4 155.86 209.72 166.99 212.12 164.45C213.74 162.76 219.17 161.91 222.71 161.53C219.49 157.47 213.1 146.53 213.1 146.53C213.1 146.53 208.4 153.14 208.4 154.45Z" fill="url(#paint33_linear)"/>
<path d="M270.24 202.42C282.31 200.57 313.13 183.79 313.13 183.79C313.13 183.79 331.07 182.37 333.33 180.4C335.59 178.43 333.17 176.96 334.56 175.88C335.95 174.8 332.84 171.52 332.84 171.52V170.52C332.84 169.52 329.91 165.39 329.91 165.39C329.91 165.39 343 156.66 341 155.07C339 153.48 307 174.31 307 174.31L270 185.84L270.24 202.42Z" fill="url(#paint34_linear)"/>
<path d="M280.16 222.06C279.36 218.73 279.16 215 276.84 204.85C282.78 203.65 310.14 187.78 310.14 187.78L303.72 174.24C303.72 174.24 265 182.56 270 182.11C270.63 182.05 263.91 165.65 258 163.04C255.69 162.04 244.93 158.04 244.91 158.34C244.91 158.96 233.91 169.44 233.91 169.44L233.71 169.31L224 163C223.499 162.598 223.055 162.131 222.68 161.61C219.14 161.98 213.68 162.84 212.09 164.53C209.7 167.03 208.39 155.91 208.37 154.53C206.03 155.83 201.31 158.47 198.2 160.3C193.94 162.82 190 165.87 188.47 168.06C187.04 170.06 185.71 176.22 186.34 185.63C186.387 186.297 186.443 186.997 186.51 187.73C187.51 198.33 193.18 209.73 194.6 218.33C196.02 226.93 199.46 259.15 199.46 259.15C199.46 259.15 236.54 266.08 247.46 263.21C258.38 260.34 262.54 255.79 262.54 255.79V241.24C262.54 241.24 265.68 252.53 269.24 262.24C270.62 265.99 273.33 288.33 274.67 290.86C276.26 293.86 284.57 291.86 285.67 290.86C287.28 289.29 281.4 227.23 280.16 222.06Z" fill="url(#paint35_linear)"/>
<path d="M201.6 194.11L240.57 214.44L273.47 206.77L240.57 220.44L201.6 194.11Z" fill="url(#paint36_linear)"/>
<defs>
<linearGradient id="paint0_linear" x1="0.0200302" y1="265.56" x2="626.53" y2="265.56" gradientUnits="userSpaceOnUse">
<stop stop-color="#F0F2F5"/>
<stop offset="0.99" stop-color="#F5F7F8"/>
</linearGradient>
<linearGradient id="paint1_linear" x1="88.17" y1="428.55" x2="68.89" y2="282.2" gradientUnits="userSpaceOnUse">
<stop stop-color="#1F1844"/>
<stop offset="0.99" stop-color="#3D3C99"/>
</linearGradient>
<linearGradient id="paint2_linear" x1="87.2001" y1="424.78" x2="70.2401" y2="296.05" gradientUnits="userSpaceOnUse">
<stop stop-color="#3F3D9E"/>
<stop offset="0.99" stop-color="#423E9F"/>
</linearGradient>
<linearGradient id="paint3_linear" x1="97.0901" y1="374.72" x2="168.66" y2="358.27" gradientUnits="userSpaceOnUse">
<stop offset="0.01" stop-color="#BBC0D9"/>
<stop offset="1" stop-color="#D6DBF8"/>
</linearGradient>
<linearGradient id="paint4_linear" x1="99.7535" y1="387.475" x2="155.424" y2="387.669" gradientUnits="userSpaceOnUse">
<stop stop-color="#BAC6D8"/>
<stop offset="0.99" stop-color="#D6DBF8"/>
</linearGradient>
<linearGradient id="paint5_linear" x1="2550.72" y1="9947.77" x2="2033.34" y2="9450.6" gradientUnits="userSpaceOnUse">
<stop stop-color="#1F1844"/>
<stop offset="0.99" stop-color="#3D3C99"/>
</linearGradient>
<linearGradient id="paint6_linear" x1="2950.55" y1="6036.3" x2="2434.8" y2="5671.97" gradientUnits="userSpaceOnUse">
<stop stop-color="#1F1844"/>
<stop offset="0.99" stop-color="#3D3C99"/>
</linearGradient>
<linearGradient id="paint7_linear" x1="2813.79" y1="9051.06" x2="3322.75" y2="8582.5" gradientUnits="userSpaceOnUse">
<stop stop-color="#1F1844"/>
<stop offset="0.99" stop-color="#3D3C99"/>
</linearGradient>
<linearGradient id="paint8_linear" x1="2647.9" y1="6181.67" x2="3036.5" y2="5855.9" gradientUnits="userSpaceOnUse">
<stop stop-color="#1F1844"/>
<stop offset="0.99" stop-color="#3D3C99"/>
</linearGradient>
<linearGradient id="paint9_linear" x1="3385.08" y1="4626.89" x2="2587.23" y2="4329.4" gradientUnits="userSpaceOnUse">
<stop stop-color="#1F1844"/>
<stop offset="0.99" stop-color="#3D3C99"/>
</linearGradient>
<linearGradient id="paint10_linear" x1="2456.81" y1="7361.01" x2="2813.6" y2="7055.67" gradientUnits="userSpaceOnUse">
<stop stop-color="#1F1844"/>
<stop offset="0.99" stop-color="#3D3C99"/>
</linearGradient>
<linearGradient id="paint11_linear" x1="94.71" y1="330.39" x2="87.69" y2="359.08" gradientUnits="userSpaceOnUse">
<stop offset="0.01" stop-color="#3D3C99"/>
<stop offset="1" stop-color="#1F1844"/>
</linearGradient>
<linearGradient id="paint12_linear" x1="72.6683" y1="370.754" x2="79.1808" y2="364.157" gradientUnits="userSpaceOnUse">
<stop stop-color="#E0E4EB"/>
<stop offset="0.99" stop-color="#F3F6FD"/>
</linearGradient>
<linearGradient id="paint13_linear" x1="25830.7" y1="-31423.7" x2="25907.9" y2="-31664.4" gradientUnits="userSpaceOnUse">
<stop stop-color="#E0E4EB"/>
<stop offset="0.99" stop-color="#F3F6FD"/>
</linearGradient>
<linearGradient id="paint14_linear" x1="-29842.3" y1="-1932.15" x2="-29696.1" y2="-1751.1" gradientUnits="userSpaceOnUse">
<stop stop-color="#E0E4EB"/>
<stop offset="0.99" stop-color="#F3F6FD"/>
</linearGradient>
<linearGradient id="paint15_linear" x1="1436.21" y1="5193.11" x2="1545.83" y2="5083.39" gradientUnits="userSpaceOnUse">
<stop offset="0.01" stop-color="#BBC0D9"/>
<stop offset="1" stop-color="#D6DBF8"/>
</linearGradient>
<linearGradient id="paint16_linear" x1="-22964.3" y1="-11149.1" x2="-22849.3" y2="-10952.4" gradientUnits="userSpaceOnUse">
<stop stop-color="#E0E4EB"/>
<stop offset="0.99" stop-color="#F3F6FD"/>
</linearGradient>
<linearGradient id="paint17_linear" x1="11302.5" y1="25628.4" x2="11469.8" y2="25588.6" gradientUnits="userSpaceOnUse">
<stop stop-color="#E0E4EB"/>
<stop offset="0.99" stop-color="#F3F6FD"/>
</linearGradient>
<linearGradient id="paint18_linear" x1="15440.7" y1="-45215" x2="15451.5" y2="-45484.9" gradientUnits="userSpaceOnUse">
<stop stop-color="#E0E4EB"/>
<stop offset="0.99" stop-color="#F3F6FD"/>
</linearGradient>
<linearGradient id="paint19_linear" x1="1566.85" y1="6164.77" x2="1694.2" y2="6034.47" gradientUnits="userSpaceOnUse">
<stop offset="0.01" stop-color="#BBC0D9"/>
<stop offset="1" stop-color="#D6DBF8"/>
</linearGradient>
<linearGradient id="paint20_linear" x1="-23487.1" y1="-12074.7" x2="-23405.2" y2="-11858" gradientUnits="userSpaceOnUse">
<stop stop-color="#E0E4EB"/>
<stop offset="0.99" stop-color="#F3F6FD"/>
</linearGradient>
<linearGradient id="paint21_linear" x1="96.21" y1="329.97" x2="89.2" y2="358.67" gradientUnits="userSpaceOnUse">
<stop stop-color="#E6EAF1"/>
<stop offset="0.99" stop-color="#F3F6FD"/>
</linearGradient>
<linearGradient id="paint22_linear" x1="67.53" y1="455.86" x2="120.99" y2="443.58" gradientUnits="userSpaceOnUse">
<stop offset="0.11" stop-color="#8988D5"/>
<stop offset="0.56" stop-color="#9D9CE8"/>
<stop offset="1" stop-color="#A7A5EE"/>
</linearGradient>
<linearGradient id="paint23_linear" x1="271.737" y1="454.464" x2="263.338" y2="431.174" gradientUnits="userSpaceOnUse">
<stop stop-color="#753200"/>
<stop offset="1" stop-color="#A04400"/>
</linearGradient>
<linearGradient id="paint24_linear" x1="-5852.14" y1="6991.58" x2="-6027.18" y2="6501.62" gradientUnits="userSpaceOnUse">
<stop stop-color="#753200"/>
<stop offset="1" stop-color="#A04400"/>
</linearGradient>
<linearGradient id="paint25_linear" x1="216.25" y1="452.76" x2="242.83" y2="452.76" gradientUnits="userSpaceOnUse">
<stop stop-color="#A7A5EE"/>
<stop offset="0.44" stop-color="#9D9CE8"/>
<stop offset="0.89" stop-color="#8988D5"/>
</linearGradient>
<linearGradient id="paint26_linear" x1="-27860.2" y1="12999" x2="-25481.9" y2="12999" gradientUnits="userSpaceOnUse">
<stop stop-color="#A7A5EE"/>
<stop offset="0.44" stop-color="#9D9CE8"/>
<stop offset="0.89" stop-color="#8988D5"/>
</linearGradient>
<linearGradient id="paint27_linear" x1="283.653" y1="325.036" x2="278.136" y2="289.481" gradientUnits="userSpaceOnUse">
<stop stop-color="#A04400"/>
<stop offset="0.3" stop-color="#9C4200"/>
<stop offset="0.62" stop-color="#8E3D00"/>
<stop offset="0.95" stop-color="#793300"/>
<stop offset="1" stop-color="#753200"/>
</linearGradient>
<linearGradient id="paint28_linear" x1="-8720.19" y1="3957.16" x2="-8750.54" y2="3964.99" gradientUnits="userSpaceOnUse">
<stop stop-color="#753200"/>
<stop offset="1" stop-color="#A04400"/>
</linearGradient>
<linearGradient id="paint29_linear" x1="-67480.8" y1="35257.1" x2="-69544.6" y2="35102.8" gradientUnits="userSpaceOnUse">
<stop stop-color="#753200"/>
<stop offset="1" stop-color="#A04400"/>
</linearGradient>
<linearGradient id="paint30_linear" x1="233.249" y1="113.662" x2="208.966" y2="105.574" gradientUnits="userSpaceOnUse">
<stop stop-color="#A04400" stop-opacity="0"/>
<stop offset="0.18" stop-color="#9A4100" stop-opacity="0.14"/>
<stop offset="0.52" stop-color="#8A3B00" stop-opacity="0.52"/>
<stop offset="0.9" stop-color="#753200"/>
</linearGradient>
<linearGradient id="paint31_linear" x1="209.519" y1="139.991" x2="234.608" y2="154.493" gradientUnits="userSpaceOnUse">
<stop stop-color="#A04400"/>
<stop offset="1" stop-color="#753200"/>
</linearGradient>
<linearGradient id="paint32_linear" x1="-3925.63" y1="2353.62" x2="-3911.7" y2="2357.43" gradientUnits="userSpaceOnUse">
<stop stop-color="#753200"/>
<stop offset="1" stop-color="#A04400"/>
</linearGradient>
<linearGradient id="paint33_linear" x1="-34548.7" y1="3526.24" x2="-34753.5" y2="3526.24" gradientUnits="userSpaceOnUse">
<stop offset="0.11" stop-color="#8988D5"/>
<stop offset="0.56" stop-color="#9D9CE8"/>
<stop offset="1" stop-color="#A7A5EE"/>
</linearGradient>
<linearGradient id="paint34_linear" x1="-82827.6" y1="62643.8" x2="-87920.2" y2="65978.3" gradientUnits="userSpaceOnUse">
<stop stop-color="#753200"/>
<stop offset="1" stop-color="#A04400"/>
</linearGradient>
<linearGradient id="paint35_linear" x1="25873.3" y1="34971" x2="41234.5" y2="34971" gradientUnits="userSpaceOnUse">
<stop stop-color="#A7A5EE"/>
<stop offset="0.44" stop-color="#9D9CE8"/>
<stop offset="0.89" stop-color="#8988D5"/>
</linearGradient>
<linearGradient id="paint36_linear" x1="16199.9" y1="6415.1" x2="21365.2" y2="6415.1" gradientUnits="userSpaceOnUse">
<stop stop-color="#A7A5EE"/>
<stop offset="0.44" stop-color="#9D9CE8"/>
<stop offset="0.89" stop-color="#8988D5"/>
</linearGradient>
</defs>
</svg>
