<?xml version="1.0" encoding="iso-8859-1"?>
<!-- Generator: Adobe Illustrator 19.0.0, SVG Export Plug-In . SVG Version: 6.00 Build 0)  -->
<svg version="1.1" id="Layer_1" xmlns="http://www.w3.org/2000/svg" xmlns:xlink="http://www.w3.org/1999/xlink" x="0px" y="0px"
	 viewBox="0 0 508.4 508.4" style="enable-background:new 0 0 508.4 508.4;" xml:space="preserve">
<path style="fill:#AEB1B4;" d="M108.8,453.2c2,25.6,24.8,47.2,49.6,47.2h204c24.8,0,47.6-21.6,49.2-47.2l16.8-336.8H80.8
	L108.8,453.2z"/>
<path style="fill:#E36D60;" d="M447.2,112.4c0-6,0-14.4,0-26c0-15.2-12.4-26-29.2-26H90c-15.6,0-31.2,10-31.2,26v26H447.2z"/>
<path style="fill:#CCCCCC;" d="M54.4,114.4c0,1.2,0,2,0,2h2C55.2,116.4,54.4,115.6,54.4,114.4z"/>
<path style="fill:#E36D60;" d="M175.2,42.8l-3.6,15.6h165.2l-3.6-15.6c-4.8-20-25.6-36.4-46.8-36.4h-64
	C200.8,6.4,180,22.8,175.2,42.8z"/>
<polygon style="fill:#CCCCCC;" points="340.8,56.4 175.2,56.4 175.2,56.4 341.2,57.2 341.2,57.2 "/>
<path d="M362.4,508.4h-204c-28,0-53.2-24.4-55.6-53.6L75.2,119.2c0-2.4,1.6-4,3.6-4.4c2.4,0,4,1.6,4.4,3.6L110.8,454
	c2,25.2,23.6,46,47.6,46h204c24,0,45.6-21.2,47.2-46l16.8-337.2c0-2.4,2-4,4-3.6c2.4,0,4,2,3.6,4l-16.8,337.6
	C415.6,484,390.4,508.4,362.4,508.4z"/>
<path d="M450,120H58c-2.4,0-4-1.6-4-4V86c0-19.6,20-30,39.2-30h328c20.4,0,33.2,11.6,33.2,30v30C454,118,452.4,120,450,120z M62,112
	h384V86c0-14-9.2-22-25.2-22h-328c-15.2,0-31.2,7.6-31.2,22v26H62z"/>
<path d="M338.8,60.8c-2,0-3.6-1.2-4-3.2l-4-16c-4.4-19.2-24-34-45.2-34h-64c-20.8,0-40.8,14.8-45.2,34l-4,15.2
	c-0.4,2-2.8,3.6-4.8,2.8c-2-0.4-3.6-2.8-2.8-4.8l4-14.8c5.2-22.4,28.4-40,52.8-40h64c24.4,0,47.6,17.6,52.8,40l4,16
	c0.4,2-0.8,4.4-2.8,4.8C339.6,60.8,339.2,60.8,338.8,60.8z"/>
<path d="M250.8,472c-2.4,0-4-1.6-4-4V232c0-2.4,1.6-4,4-4s4,1.6,4,4v236C254.8,470,253.2,472,250.8,472z"/>
<path d="M250.8,208c-2.4,0-4-1.6-4-4v-56c0-2.4,1.6-4,4-4s4,1.6,4,4v56C254.8,206,253.2,208,250.8,208z"/>
<path d="M177.6,472c-2,0-4-1.6-4-4l-12-320c0-2.4,1.6-4,4-4s4,1.6,4,4l12,320C182,470,180,472,177.6,472C178,472,178,472,177.6,472z
	"/>
<path d="M329.6,472C329.2,472,329.2,472,329.6,472c-2.4,0-4-2-4-4l8-212c0-2.4,2-4,4-4c2.4,0,4,2,4,4l-8,212
	C333.2,470.4,331.6,472,329.6,472z"/>
<path d="M338.8,232.4L338.8,232.4c-2.4,0-4-2-4-4l3.2-80.8c0-2.4,2-4,4-4c2.4,0,4,2,4,4l-3.2,80.8
	C342.8,230.8,340.8,232.4,338.8,232.4z"/>
<g>
</g>
<g>
</g>
<g>
</g>
<g>
</g>
<g>
</g>
<g>
</g>
<g>
</g>
<g>
</g>
<g>
</g>
<g>
</g>
<g>
</g>
<g>
</g>
<g>
</g>
<g>
</g>
<g>
</g>
</svg>
