<svg width="650" height="650" viewBox="0 0 650 650" fill="none" xmlns="http://www.w3.org/2000/svg">
<path d="M612.61 368.39C557.61 255.92 400.24 91.18 195.77 90.76C-17.59 90.32 -38.23 301.93 76.77 360.76C191.77 419.59 23.62 492.88 143.83 566.55C265.49 641.11 525.5 634.11 589.5 576.11C653.5 518.11 636.38 417 612.61 368.39Z" fill="url(#paint0_linear)"/>
<path d="M95.87 519.93C95.87 519.93 117.1 496.3 114.87 486.98C112.64 477.66 125.79 466.35 126.05 452.79C126.34 437.43 118.13 441.53 115.29 434.96C111.08 425.22 120.45 416.6 106.29 412.87C96.61 410.33 89.81 415.29 90.69 403.32C91.57 391.35 87.24 376.53 79.49 371.15C68.41 363.47 45.88 362.86 53.49 378.35C61.49 394.63 54.44 421.44 52.58 428.78C32.87 506.37 95.87 519.93 95.87 519.93Z" fill="url(#paint1_linear)"/>
<path d="M72.1801 387.12C74.6101 407.12 99.7301 439.12 88.3501 460.55C76.9701 481.98 94.2201 515.05 94.2201 515.05" stroke="url(#paint2_linear)" stroke-width="0.73" stroke-miterlimit="10"/>
<path d="M160.2 475.18C146.41 480.05 161.34 497.89 146.26 505.92C131.18 513.95 111.86 518 111 514.13C110.94 513.87 110.13 511.28 109.27 507.5C109.07 506.63 108.88 505.68 108.68 504.69C108.68 504.41 108.58 504.13 108.52 503.85C107.957 500.832 107.576 497.783 107.38 494.72C107.38 494.63 107.38 494.53 107.38 494.44C107.31 493.22 107.29 492 107.31 490.78C107.33 489.56 107.4 488.44 107.52 487.3C107.97 482.96 109.21 478.96 111.75 476.09C112.398 475.335 113.137 474.663 113.95 474.09C124.43 466.8 128.61 470.34 128.53 459.57C128.39 441.11 133.65 438.35 139.83 440.18C146.01 442.01 150.83 442.51 151.75 435.69C152.67 428.87 147.07 398.46 161.12 398.52C185.46 398.6 173.12 429.66 170.69 434.7C164.79 446.78 177.06 448.7 179.97 457.48C182.88 466.26 174 470.31 160.2 475.18Z" fill="url(#paint3_linear)"/>
<path d="M108.27 540.66C108.27 540.66 104.57 506.66 130.46 487.66C142.16 479.06 163.9 448.35 161.93 415.12" stroke="url(#paint4_linear)" stroke-width="2.1" stroke-miterlimit="10"/>
<path d="M72 446.16C75.22 440.71 98.34 463.16 94.29 468.16C90.24 473.16 68.9 451.36 72 446.16Z" fill="url(#paint5_linear)"/>
<path d="M66.13 476.84C66.59 470.49 94.51 479.62 93.07 485.9C91.63 492.18 65.69 482.89 66.13 476.84Z" fill="url(#paint6_linear)"/>
<path d="M118.83 448.81C123.77 452.68 99.36 473.7 95 469C90.64 464.3 114.12 445.12 118.83 448.81Z" fill="url(#paint7_linear)"/>
<path d="M116.27 475.3C120.43 480 96.86 491.81 93.27 486.48C89.68 481.15 112.31 470.82 116.27 475.3Z" fill="url(#paint8_linear)"/>
<path d="M68.0001 499.68C66.7801 493.85 97.5501 497.21 97.8201 503.21C98.0901 509.21 69.1501 505.23 68.0001 499.68Z" fill="url(#paint9_linear)"/>
<path d="M114.77 492.88C117.96 498.28 95.91 511.74 93.35 505.88C90.79 500.02 111.73 487.74 114.77 492.88Z" fill="url(#paint10_linear)"/>
<path d="M102.61 419.93C108.82 420.38 100.79 451.68 94.61 450.23C88.43 448.78 96.69 419.5 102.61 419.93Z" fill="url(#paint11_linear)"/>
<path d="M74.3001 444.68C77.5201 439.23 100.64 461.68 96.59 466.68C92.54 471.68 71.2301 449.87 74.3001 444.68Z" fill="url(#paint12_linear)"/>
<path d="M68 475.54C68.46 469.19 96.3801 478.32 94.9401 484.6C93.5001 490.88 67.55 481.59 68 475.54Z" fill="url(#paint13_linear)"/>
<path d="M119.77 447.41C124.71 451.28 100.3 472.31 95.95 467.65C91.6 462.99 115.06 443.72 119.77 447.41Z" fill="url(#paint14_linear)"/>
<path d="M108 486.1C108.43 481.84 109.62 477.91 112.06 475.1C115.06 474.51 117.49 474.63 118.57 475.85C120.87 478.45 114.61 483.26 108 486.1Z" fill="url(#paint15_linear)"/>
<path d="M117.43 474.3C121.59 479 98.02 490.81 94.43 485.48C90.84 480.15 113.47 469.82 117.43 474.3Z" fill="url(#paint16_linear)"/>
<path d="M96.3 442.85C96.3 442.85 97.01 459.11 94.86 473.3C92.71 487.49 98.14 511.5 106.98 519.18" stroke="url(#paint17_linear)" stroke-width="1.22" stroke-miterlimit="10"/>
<path d="M68.0001 498.56C66.7801 492.73 97.5501 496.09 97.8201 502.09C98.0901 508.09 69.1501 504.11 68.0001 498.56Z" fill="url(#paint18_linear)"/>
<path d="M109.12 503.18C109.12 502.91 109.02 502.63 108.97 502.35C108.429 499.374 108.065 496.369 107.88 493.35C107.88 493.26 107.88 493.16 107.88 493.07C112.88 490.29 118.27 488.89 119.68 491.29C121.45 494.37 115.31 499.92 109.12 503.18Z" fill="url(#paint19_linear)"/>
<path d="M118.53 489C121.72 494.4 99.67 507.86 97.11 502C94.55 496.14 115.5 483.89 118.53 489Z" fill="url(#paint20_linear)"/>
<path d="M104.11 419.52C110.32 419.97 102.29 451.27 96.11 449.82C89.93 448.37 98.19 419.09 104.11 419.52Z" fill="url(#paint21_linear)"/>
<path d="M109.44 569.68H90.3201C86.1507 569.681 82.1226 568.169 78.9833 565.425C75.8441 562.682 73.8069 558.892 73.2501 554.76L68.5001 519.56C68.4279 518.999 68.4757 518.428 68.6403 517.887C68.8049 517.345 69.0826 516.845 69.455 516.418C69.8275 515.992 70.2861 515.65 70.8007 515.414C71.3152 515.178 71.874 515.054 72.4401 515.05H127.31C127.876 515.054 128.435 515.178 128.949 515.414C129.464 515.65 129.923 515.992 130.295 516.418C130.668 516.845 130.945 517.345 131.11 517.887C131.274 518.428 131.322 518.999 131.25 519.56L126.5 554.76C125.943 558.89 123.908 562.678 120.771 565.422C117.633 568.166 113.608 569.679 109.44 569.68Z" fill="url(#paint22_linear)"/>
<path d="M523.85 124.39H342.5C333.393 124.39 326.01 131.773 326.01 140.88V551.76C326.01 560.867 333.393 568.25 342.5 568.25H523.85C532.957 568.25 540.34 560.867 540.34 551.76V140.88C540.34 131.773 532.957 124.39 523.85 124.39Z" fill="#1F1844"/>
<path d="M515.57 142.61H350.79C344.063 142.61 338.61 148.063 338.61 154.79V537.85C338.61 544.577 344.063 550.03 350.79 550.03H515.57C522.297 550.03 527.75 544.577 527.75 537.85V154.79C527.75 148.063 522.297 142.61 515.57 142.61Z" fill="#737CBD"/>
<path d="M387.3 136.19H479.07C479.07 141.279 477.048 146.161 473.449 149.759C469.851 153.358 464.97 155.38 459.88 155.38H406.49C401.401 155.38 396.52 153.358 392.921 149.759C389.322 146.161 387.3 141.279 387.3 136.19Z" fill="#1F1844"/>
<path d="M511.34 166.45H466.16C463.84 166.45 461.96 168.33 461.96 170.65V179.13C461.96 181.45 463.84 183.33 466.16 183.33H511.34C513.66 183.33 515.54 181.45 515.54 179.13V170.65C515.54 168.33 513.66 166.45 511.34 166.45Z" fill="#F0EFF3"/>
<path d="M412.07 199.17H357.29C354.97 199.17 353.09 201.05 353.09 203.37V212.98C353.09 215.3 354.97 217.18 357.29 217.18H412.07C414.39 217.18 416.27 215.3 416.27 212.98V203.37C416.27 201.05 414.39 199.17 412.07 199.17Z" fill="#F0EFF3"/>
<path d="M407.85 171.67H361.51C359.732 171.67 358.29 173.112 358.29 174.89C358.29 176.668 359.732 178.11 361.51 178.11H407.85C409.628 178.11 411.07 176.668 411.07 174.89C411.07 173.112 409.628 171.67 407.85 171.67Z" fill="#F0EFF3"/>
<path d="M500.88 227.81H365.47C361.565 227.81 358.4 230.975 358.4 234.88V446.16C358.4 450.065 361.565 453.23 365.47 453.23H500.88C504.785 453.23 507.95 450.065 507.95 446.16V234.88C507.95 230.975 504.785 227.81 500.88 227.81Z" fill="#F0EFF3"/>
<path d="M500.88 474.02H365.47C361.565 474.02 358.4 477.185 358.4 481.09V506.84C358.4 510.745 361.565 513.91 365.47 513.91H500.88C504.785 513.91 507.95 510.745 507.95 506.84V481.09C507.95 477.185 504.785 474.02 500.88 474.02Z" fill="#F0EFF3"/>
<path d="M433.18 354.89C463.434 354.89 487.96 330.364 487.96 300.11C487.96 269.856 463.434 245.33 433.18 245.33C402.926 245.33 378.4 269.856 378.4 300.11C378.4 330.364 402.926 354.89 433.18 354.89Z" stroke="white" stroke-width="6" stroke-miterlimit="10"/>
<path d="M485.76 371.12H380.59C376.498 371.12 373.18 374.438 373.18 378.53V392.9C373.18 396.992 376.498 400.31 380.59 400.31H485.76C489.852 400.31 493.17 396.992 493.17 392.9V378.53C493.17 374.438 489.852 371.12 485.76 371.12Z" fill="white"/>
<path d="M485.76 412.3H380.59C376.498 412.3 373.18 415.618 373.18 419.71V434.08C373.18 438.172 376.498 441.49 380.59 441.49H485.76C489.852 441.49 493.17 438.172 493.17 434.08V419.71C493.17 415.618 489.852 412.3 485.76 412.3Z" fill="white"/>
<path d="M253.6 163L259.29 161.83C259.601 161.766 259.925 161.807 260.211 161.946C260.497 162.085 260.729 162.315 260.87 162.6L262.87 166.72C262.966 166.918 263.106 167.091 263.279 167.226C263.453 167.361 263.655 167.455 263.87 167.5L267.05 168.05C267.399 168.111 267.714 168.299 267.934 168.577C268.153 168.856 268.262 169.206 268.24 169.56L267.99 173.34C267.967 173.694 268.076 174.044 268.296 174.323C268.516 174.601 268.83 174.789 269.18 174.85L272.06 175.35C272.406 175.411 272.718 175.595 272.937 175.87C273.156 176.144 273.267 176.489 273.25 176.84L273.09 179.95C273.078 180.206 273.135 180.461 273.255 180.687C273.374 180.914 273.552 181.105 273.77 181.24L277.22 183.38C277.397 183.491 277.548 183.638 277.662 183.813C277.776 183.987 277.851 184.185 277.881 184.391C277.912 184.597 277.897 184.808 277.838 185.008C277.779 185.208 277.677 185.393 277.54 185.55L275.33 188.07C275.198 188.221 275.099 188.399 275.039 188.591C274.98 188.783 274.961 188.986 274.985 189.185C275.008 189.385 275.074 189.578 275.176 189.751C275.279 189.924 275.416 190.073 275.58 190.19L279.52 192.98C279.813 193.188 280.018 193.499 280.094 193.85C280.17 194.202 280.111 194.569 279.93 194.88L278.23 197.79C278.081 198.046 278.014 198.342 278.039 198.637C278.064 198.932 278.18 199.213 278.37 199.44L280.37 201.87C280.498 202.024 280.593 202.203 280.649 202.396C280.704 202.588 280.719 202.79 280.691 202.989C280.664 203.188 280.596 203.378 280.49 203.549C280.385 203.72 280.245 203.866 280.08 203.98L277.92 205.44C277.608 205.658 277.394 205.991 277.327 206.366C277.26 206.74 277.343 207.127 277.56 207.44L280.93 212.1C281.121 212.367 281.215 212.69 281.197 213.018C281.178 213.345 281.049 213.656 280.83 213.9L278.77 216.19C278.544 216.442 278.414 216.766 278.403 217.104C278.392 217.442 278.501 217.774 278.71 218.04L281.89 222.04C282.097 222.296 282.21 222.616 282.21 222.945C282.21 223.274 282.097 223.594 281.89 223.85L278.89 227.48C278.689 227.725 278.574 228.028 278.563 228.345C278.553 228.661 278.646 228.972 278.83 229.23L280.51 231.58C280.668 231.803 280.759 232.066 280.773 232.338C280.788 232.611 280.724 232.882 280.59 233.12L279.12 235.71C279.02 235.9 279.27 236.34 279.29 236.93C279.315 237.306 279.315 237.684 279.29 238.06" stroke="url(#paint23_linear)" stroke-width="5" stroke-miterlimit="10" stroke-linecap="round"/>
<path d="M247 163L252.69 161.83C253.001 161.766 253.325 161.807 253.611 161.946C253.897 162.085 254.129 162.315 254.27 162.6L256.27 166.72C256.366 166.918 256.506 167.091 256.68 167.226C256.853 167.361 257.055 167.455 257.27 167.5L260.45 168.05C260.8 168.111 261.114 168.299 261.334 168.577C261.554 168.856 261.663 169.206 261.64 169.56L261.39 173.34C261.368 173.694 261.476 174.044 261.696 174.323C261.916 174.601 262.23 174.789 262.58 174.85L265.46 175.35C265.806 175.411 266.118 175.595 266.337 175.87C266.556 176.144 266.667 176.489 266.65 176.84L266.49 179.95C266.478 180.206 266.535 180.461 266.655 180.687C266.774 180.914 266.952 181.105 267.17 181.24L270.62 183.38C270.797 183.491 270.948 183.638 271.062 183.813C271.176 183.987 271.251 184.185 271.281 184.391C271.312 184.597 271.297 184.808 271.238 185.008C271.179 185.208 271.077 185.393 270.94 185.55L268.73 188.07C268.598 188.221 268.499 188.399 268.439 188.591C268.38 188.783 268.361 188.986 268.385 189.185C268.408 189.385 268.474 189.578 268.576 189.751C268.679 189.924 268.816 190.073 268.98 190.19L273 193C273.293 193.208 273.498 193.519 273.574 193.87C273.65 194.222 273.591 194.589 273.41 194.9L271.71 197.81C271.561 198.066 271.494 198.362 271.519 198.657C271.544 198.952 271.66 199.233 271.85 199.46L273.85 201.89C273.979 202.044 274.073 202.223 274.129 202.416C274.184 202.608 274.199 202.81 274.171 203.009C274.144 203.208 274.076 203.398 273.97 203.569C273.865 203.74 273.725 203.886 273.56 204L271.4 205.46C271.088 205.678 270.875 206.011 270.807 206.386C270.74 206.76 270.823 207.147 271.04 207.46L274.41 212.12C274.601 212.387 274.695 212.71 274.677 213.038C274.658 213.365 274.529 213.676 274.31 213.92L272.25 216.21C272.024 216.462 271.894 216.786 271.883 217.124C271.872 217.462 271.981 217.794 272.19 218.06L275.37 222.06C275.577 222.316 275.69 222.636 275.69 222.965C275.69 223.294 275.577 223.614 275.37 223.87L272.37 227.5C272.169 227.745 272.054 228.048 272.043 228.365C272.033 228.681 272.126 228.992 272.31 229.25L273.99 231.6C274.148 231.823 274.239 232.086 274.254 232.358C274.268 232.631 274.204 232.902 274.07 233.14L272.6 235.73C272.5 235.92 272.75 236.36 272.77 236.95C272.795 237.326 272.795 237.704 272.77 238.08" stroke="url(#paint24_linear)" stroke-width="5" stroke-miterlimit="10" stroke-linecap="round"/>
<path d="M261.8 160.67L267.49 159.5C267.801 159.436 268.125 159.477 268.411 159.616C268.697 159.755 268.929 159.985 269.07 160.27L271.07 164.39C271.166 164.588 271.306 164.761 271.48 164.896C271.653 165.031 271.855 165.125 272.07 165.17L275.25 165.72C275.6 165.781 275.914 165.969 276.134 166.247C276.354 166.526 276.463 166.876 276.44 167.23L276.19 171.01C276.168 171.364 276.277 171.714 276.496 171.993C276.716 172.271 277.031 172.459 277.38 172.52L280.26 173.02C280.606 173.081 280.918 173.265 281.137 173.54C281.356 173.814 281.468 174.159 281.45 174.51L281.29 177.62C281.278 177.876 281.335 178.131 281.455 178.357C281.574 178.584 281.752 178.775 281.97 178.91L285.42 181.05C285.597 181.161 285.748 181.308 285.862 181.483C285.976 181.657 286.051 181.855 286.081 182.061C286.112 182.267 286.097 182.478 286.038 182.678C285.979 182.878 285.878 183.063 285.74 183.22L283.53 185.74C283.398 185.892 283.299 186.069 283.239 186.261C283.18 186.453 283.161 186.656 283.185 186.855C283.208 187.055 283.274 187.248 283.376 187.421C283.479 187.594 283.616 187.743 283.78 187.86L287.72 190.65C288.013 190.858 288.218 191.169 288.294 191.52C288.37 191.872 288.311 192.239 288.13 192.55L286.43 195.46C286.281 195.716 286.214 196.012 286.239 196.307C286.264 196.602 286.38 196.883 286.57 197.11L288.57 199.54C288.699 199.694 288.794 199.873 288.849 200.066C288.904 200.258 288.919 200.46 288.891 200.659C288.864 200.858 288.796 201.048 288.69 201.219C288.585 201.39 288.445 201.536 288.28 201.65L286.12 203.11C285.808 203.328 285.595 203.661 285.527 204.036C285.46 204.411 285.543 204.797 285.76 205.11L289.13 209.77C289.321 210.037 289.415 210.36 289.397 210.688C289.378 211.015 289.249 211.326 289.03 211.57L286.97 213.86C286.744 214.112 286.614 214.436 286.603 214.774C286.592 215.112 286.701 215.444 286.91 215.71L290.09 219.71C290.297 219.966 290.41 220.286 290.41 220.615C290.41 220.944 290.297 221.264 290.09 221.52L287.09 225.15C286.889 225.395 286.774 225.699 286.764 226.015C286.753 226.331 286.846 226.642 287.03 226.9L288.71 229.25C288.868 229.473 288.959 229.736 288.974 230.008C288.988 230.281 288.924 230.552 288.79 230.79L287.32 233.38C287.22 233.57 287.47 234.01 287.49 234.6C287.515 234.976 287.515 235.354 287.49 235.73" stroke="url(#paint25_linear)" stroke-width="5" stroke-miterlimit="10" stroke-linecap="round"/>
<path d="M274.11 176C254.85 159.14 224.22 168.56 219.4 190.23C218.4 194.6 217.73 201.41 217.4 208.91C217.18 213.66 218.023 218.399 219.868 222.782C221.713 227.165 224.514 231.08 228.065 234.242C231.617 237.405 235.829 239.734 240.396 241.061C244.962 242.387 249.767 242.677 254.46 241.91C259.8 241.03 264.07 240.66 265.78 241.29C288.1 226 290.58 191.67 274.11 176Z" fill="url(#paint26_linear)"/>
<path d="M280 184.65C279.9 185.81 279.75 186.97 279.59 188.1C278.05 182.19 267.97 175.5 256.59 176.54C256.59 176.54 256.59 177.92 254.44 178.31C252.29 178.7 251.34 176.01 250.86 178.31C250.38 180.61 250.39 183.7 247.76 183.7C245.13 183.7 243.46 185.37 243.23 187.04C243 188.71 247.43 194.71 245.23 196.19C242.69 197.88 240.85 204.19 240.85 204.19C240.85 204.19 238.85 189.54 230.98 198.12C230.43 199.69 229.98 201.28 229.56 202.86C229.336 201.934 229.355 200.965 229.616 200.049C229.877 199.132 230.371 198.299 231.05 197.63C231.408 197.308 231.813 197.041 232.25 196.84C231.019 192.957 230.375 188.913 230.34 184.84C230.34 182.58 225.25 174.31 225.85 171.99C228.97 159.99 249.97 152.69 260.13 153.39C270.29 154.09 280.94 173.36 280 184.65Z" fill="url(#paint27_linear)"/>
<path d="M235.72 218C238.584 222.213 242.327 225.755 246.691 228.383C251.055 231.01 255.937 232.66 261 233.22L260.93 231.86L260.85 230.19C253.59 228.05 244.91 223.03 234.8 212.5L235.02 212.75C235.323 214.239 235.53 215.745 235.64 217.26C235.68 217.49 235.7 217.72 235.72 218Z" fill="url(#paint28_linear)"/>
<path d="M280.53 214.22C278.26 224.1 269.1 228.6 263.17 229.86C262.6 229.97 262.06 230.06 261.56 230.11C261.335 230.15 261.108 230.177 260.88 230.19L260.96 231.86L261.11 233.99L261.24 235.88L269.33 289.6C269.446 290.09 269.41 290.604 269.228 291.073C269.046 291.542 268.726 291.945 268.31 292.229C267.894 292.513 267.402 292.664 266.899 292.662C266.395 292.661 265.904 292.506 265.49 292.22C257 286.31 238.19 242 238 239.05C238 239.05 237.13 234.5 235.93 220.67C235.86 219.8 235.79 218.9 235.71 217.96C235.71 217.72 235.71 217.49 235.64 217.26C235.64 216.8 235.54 216.26 235.47 215.67C235.39 214.687 235.239 213.711 235.02 212.75C234.942 212.674 234.872 212.59 234.81 212.5C231.49 208.76 229.81 205.5 229.43 202.86C229.65 201.95 229.91 201.03 230.19 200.13C230.648 198.482 231.694 197.059 233.13 196.13C235.95 194.38 237.48 194.91 238.31 195.96C238.415 196.1 238.558 196.206 238.721 196.268C238.884 196.329 239.062 196.343 239.233 196.307C239.404 196.272 239.561 196.188 239.686 196.066C239.812 195.945 239.9 195.79 239.94 195.62C240.761 192.079 242.017 188.652 243.68 185.42C246.41 180.29 250.68 175.35 257.4 174.01C258.62 173.77 269.29 172.36 272.46 174.58C274.84 176.25 278.46 182.69 279.54 188.08C279.41 189 279.27 189.9 279.14 190.79C278.779 192.943 278.662 195.13 278.79 197.31C279.16 201.31 282.13 207.33 280.53 214.22Z" fill="url(#paint29_linear)"/>
<path d="M261 231.87C261 231.87 244.28 229.87 236 220.67C235.93 219.8 235.86 218.9 235.78 217.97C235.78 217.73 235.78 217.5 235.72 217.27C235.72 216.8 235.62 216.27 235.55 215.68C245.7 223.87 254.32 228.15 261.62 230.12C261.38 230.12 261.15 230.18 260.94 230.2L261 231.87Z" fill="url(#paint30_linear)"/>
<path d="M236.17 201.36C236.17 201.36 233.82 198.59 232.48 200.93C231.14 203.27 233.78 206.93 233.78 206.93L236.17 201.36Z" fill="url(#paint31_linear)"/>
<path d="M279.56 188.1C279.43 189.02 279.29 189.92 279.16 190.81C277.16 187.58 271.91 180.21 265.63 179.22C259.96 178.34 251.2 181.45 243.7 185.43C246.43 180.3 250.7 175.36 257.42 174.02C258.64 173.78 269.31 172.37 272.48 174.59C274.86 176.27 278.43 182.71 279.56 188.1Z" fill="url(#paint32_linear)"/>
<path d="M249.8 155.7L244.39 153.58C244.095 153.466 243.771 153.452 243.467 153.541C243.163 153.629 242.897 153.815 242.71 154.07L240 157.78C239.867 157.962 239.692 158.111 239.491 158.214C239.289 158.316 239.066 158.37 238.84 158.37H235.6C235.246 158.37 234.905 158.501 234.641 158.737C234.377 158.973 234.209 159.298 234.17 159.65L233.77 163.41C233.731 163.762 233.563 164.087 233.299 164.323C233.036 164.559 232.694 164.69 232.34 164.69H229.42C229.063 164.693 228.72 164.829 228.458 165.072C228.195 165.314 228.032 165.644 228 166L227.63 169.09C227.599 169.345 227.5 169.587 227.343 169.791C227.187 169.995 226.978 170.154 226.74 170.25L223 171.73C222.807 171.808 222.633 171.928 222.491 172.08C222.348 172.232 222.241 172.413 222.175 172.611C222.11 172.809 222.088 173.018 222.111 173.225C222.134 173.432 222.202 173.632 222.31 173.81L224.06 176.67C224.157 176.84 224.218 177.028 224.239 177.223C224.261 177.417 224.242 177.614 224.185 177.801C224.128 177.988 224.034 178.162 223.907 178.311C223.781 178.461 223.625 178.583 223.45 178.67L219.09 180.75C218.766 180.905 218.511 181.175 218.376 181.508C218.241 181.841 218.235 182.213 218.36 182.55L219.54 185.7C219.643 185.978 219.658 186.28 219.583 186.566C219.508 186.853 219.346 187.109 219.12 187.3L216.69 189.35C216.537 189.48 216.413 189.641 216.326 189.821C216.239 190.002 216.19 190.199 216.184 190.4C216.177 190.6 216.213 190.8 216.288 190.986C216.363 191.172 216.476 191.34 216.62 191.48L218.5 193.29C218.637 193.424 218.746 193.584 218.821 193.761C218.895 193.938 218.934 194.128 218.934 194.32C218.934 194.512 218.895 194.702 218.821 194.879C218.746 195.056 218.637 195.216 218.5 195.35L214.39 199.35C214.157 199.58 214.009 199.883 213.97 200.208C213.932 200.534 214.006 200.862 214.18 201.14L215.82 203.75C216 204.036 216.073 204.376 216.027 204.71C215.981 205.045 215.82 205.353 215.57 205.58L211.76 209.01C211.518 209.231 211.358 209.527 211.307 209.851C211.256 210.174 211.317 210.506 211.48 210.79L213.84 214.88C213.999 215.155 214.062 215.474 214.021 215.789C213.979 216.104 213.835 216.396 213.61 216.62L211.56 218.62C211.366 218.813 211.23 219.058 211.17 219.325C211.11 219.593 211.127 219.872 211.22 220.13L212.22 222.93C212.215 223.349 212.082 223.758 211.84 224.1C211.437 224.85 211.323 225.722 211.518 226.551C211.713 227.379 212.205 228.108 212.9 228.6L213.07 232.01" stroke="url(#paint33_linear)" stroke-width="5" stroke-miterlimit="10" stroke-linecap="round"/>
<path d="M259.25 163.46L250.1 160.21C249.805 160.096 249.481 160.082 249.177 160.171C248.873 160.259 248.607 160.445 248.42 160.7L245.7 164.41C245.567 164.593 245.392 164.741 245.19 164.844C244.989 164.946 244.766 165 244.54 165H241.31C240.956 165 240.614 165.131 240.351 165.367C240.087 165.603 239.919 165.928 239.88 166.28L239.48 170.04C239.441 170.392 239.273 170.717 239.009 170.953C238.746 171.189 238.404 171.32 238.05 171.32H235.13C234.781 171.322 234.444 171.451 234.183 171.683C233.922 171.915 233.754 172.233 233.71 172.58L233.34 175.67C233.309 175.925 233.21 176.167 233.053 176.371C232.897 176.575 232.688 176.734 232.45 176.83L228.68 178.35C228.487 178.428 228.313 178.548 228.171 178.7C228.028 178.852 227.921 179.033 227.855 179.231C227.789 179.429 227.768 179.638 227.791 179.845C227.814 180.052 227.882 180.252 227.99 180.43L229.74 183.29C229.837 183.46 229.898 183.648 229.919 183.843C229.941 184.037 229.922 184.234 229.865 184.421C229.808 184.608 229.713 184.782 229.587 184.931C229.461 185.081 229.305 185.203 229.13 185.29L224.77 187.37C224.446 187.525 224.191 187.795 224.056 188.128C223.921 188.461 223.915 188.833 224.04 189.17L225.22 192.32C225.323 192.598 225.338 192.9 225.263 193.186C225.188 193.473 225.026 193.729 224.8 193.92L222.39 196C222.237 196.13 222.113 196.291 222.026 196.471C221.939 196.652 221.89 196.849 221.884 197.05C221.877 197.25 221.913 197.45 221.988 197.636C222.063 197.822 222.176 197.99 222.32 198.13L224.2 200C224.337 200.134 224.446 200.294 224.521 200.471C224.595 200.648 224.634 200.838 224.634 201.03C224.634 201.222 224.595 201.412 224.521 201.589C224.446 201.766 224.337 201.926 224.2 202.06L220.09 206.06C219.857 206.29 219.709 206.593 219.67 206.918C219.632 207.244 219.706 207.572 219.88 207.85L221.52 210.46C221.699 210.746 221.773 211.086 221.727 211.42C221.681 211.755 221.52 212.063 221.27 212.29L217.46 215.72C217.218 215.941 217.058 216.237 217.007 216.561C216.956 216.884 217.017 217.216 217.18 217.5L219.54 221.59C219.699 221.865 219.762 222.184 219.721 222.499C219.679 222.814 219.535 223.106 219.31 223.33L217.26 225.33C217.065 225.523 216.93 225.768 216.87 226.035C216.81 226.303 216.827 226.582 216.92 226.84L217.92 229.64C217.915 230.059 217.782 230.468 217.54 230.81C217.137 231.56 217.023 232.432 217.218 233.261C217.413 234.089 217.905 234.818 218.6 235.31L218.77 238.72" stroke="url(#paint34_linear)" stroke-width="5" stroke-miterlimit="10" stroke-linecap="round"/>
<path d="M242.78 159.93L237.37 157.81C237.075 157.696 236.751 157.682 236.447 157.77C236.143 157.859 235.877 158.045 235.69 158.3L233 162C232.867 162.182 232.692 162.331 232.49 162.433C232.289 162.536 232.066 162.59 231.84 162.59H228.61C228.256 162.59 227.915 162.721 227.651 162.957C227.387 163.193 227.219 163.518 227.18 163.87L226.78 167.63C226.741 167.982 226.573 168.307 226.309 168.543C226.046 168.779 225.704 168.91 225.35 168.91H222.43C222.081 168.912 221.744 169.041 221.483 169.273C221.222 169.505 221.054 169.823 221.01 170.17L220.64 173.26C220.609 173.515 220.51 173.757 220.353 173.961C220.197 174.165 219.988 174.324 219.75 174.42L216 176C215.807 176.078 215.633 176.198 215.491 176.35C215.348 176.502 215.241 176.683 215.175 176.881C215.109 177.079 215.088 177.288 215.111 177.495C215.134 177.702 215.202 177.902 215.31 178.08L217.06 180.94C217.157 181.11 217.218 181.298 217.239 181.493C217.261 181.687 217.242 181.884 217.185 182.071C217.128 182.258 217.034 182.432 216.907 182.581C216.781 182.731 216.625 182.853 216.45 182.94L212.05 185C211.726 185.155 211.471 185.425 211.336 185.758C211.201 186.091 211.195 186.463 211.32 186.8L212.5 189.95C212.603 190.227 212.618 190.53 212.543 190.816C212.468 191.103 212.306 191.359 212.08 191.55L209.65 193.6C209.497 193.73 209.373 193.891 209.286 194.071C209.199 194.252 209.15 194.449 209.144 194.649C209.137 194.85 209.173 195.05 209.248 195.236C209.323 195.422 209.436 195.59 209.58 195.73L211.46 197.54C211.597 197.674 211.706 197.834 211.781 198.011C211.855 198.188 211.894 198.378 211.894 198.57C211.894 198.762 211.855 198.952 211.781 199.129C211.706 199.306 211.597 199.466 211.46 199.6L207.35 203.6C207.117 203.83 206.969 204.133 206.93 204.458C206.892 204.783 206.966 205.112 207.14 205.39L208.8 208C208.98 208.286 209.053 208.626 209.007 208.96C208.961 209.295 208.8 209.603 208.55 209.83L204.74 213.26C204.498 213.481 204.338 213.777 204.287 214.101C204.236 214.424 204.297 214.756 204.46 215.04L206.82 219.13C206.979 219.405 207.042 219.724 207.001 220.039C206.959 220.354 206.815 220.646 206.59 220.87L204.54 222.87C204.345 223.063 204.21 223.308 204.15 223.575C204.09 223.843 204.107 224.122 204.2 224.38L205.2 227.18C205.195 227.599 205.062 228.007 204.82 228.35C204.27 229.35 207.27 230.78 207.75 231.76" stroke="url(#paint35_linear)" stroke-width="5" stroke-miterlimit="10" stroke-linecap="round"/>
<path d="M243.63 156.08L238.42 153.51C238.136 153.369 237.813 153.327 237.502 153.388C237.191 153.45 236.909 153.612 236.7 153.85L233.7 157.32C233.552 157.49 233.367 157.623 233.158 157.708C232.95 157.793 232.724 157.828 232.5 157.81L229.28 157.54C228.927 157.511 228.576 157.614 228.294 157.828C228.011 158.042 227.818 158.352 227.75 158.7L227.04 162.42C226.972 162.768 226.779 163.078 226.497 163.292C226.214 163.506 225.863 163.609 225.51 163.58L222.6 163.33C222.25 163.301 221.901 163.4 221.619 163.61C221.337 163.82 221.142 164.126 221.07 164.47L220.44 167.52C220.386 167.773 220.264 168.007 220.088 168.197C219.912 168.387 219.688 168.527 219.44 168.6L215.56 169.79C215.363 169.853 215.182 169.957 215.029 170.095C214.876 170.234 214.755 170.404 214.673 170.594C214.592 170.783 214.552 170.988 214.556 171.195C214.561 171.401 214.61 171.604 214.7 171.79L216.2 174.79C216.292 174.971 216.344 175.169 216.354 175.371C216.364 175.573 216.331 175.776 216.257 175.964C216.184 176.153 216.071 176.324 215.927 176.467C215.783 176.609 215.61 176.719 215.42 176.79L210.9 178.49C210.566 178.619 210.292 178.867 210.131 179.187C209.97 179.507 209.934 179.875 210.03 180.22L210.94 183.46C211.02 183.745 211.01 184.048 210.911 184.327C210.813 184.606 210.631 184.848 210.39 185.02L207.79 186.86C207.626 186.977 207.489 187.126 207.386 187.299C207.284 187.472 207.218 187.665 207.195 187.865C207.171 188.064 207.19 188.267 207.249 188.459C207.309 188.651 207.408 188.828 207.54 188.98L209.26 190.98C209.385 191.125 209.48 191.293 209.54 191.476C209.599 191.658 209.622 191.85 209.606 192.041C209.59 192.232 209.536 192.417 209.448 192.587C209.359 192.757 209.237 192.908 209.09 193.03L204.65 196.69C204.397 196.9 204.224 197.19 204.158 197.512C204.093 197.833 204.139 198.168 204.29 198.46L205.71 201.2C205.863 201.501 205.906 201.845 205.831 202.174C205.757 202.503 205.568 202.796 205.3 203L201.21 206.1C200.95 206.299 200.766 206.581 200.687 206.899C200.609 207.218 200.642 207.553 200.78 207.85L202.78 212.13C202.914 212.417 202.949 212.74 202.88 213.049C202.811 213.359 202.643 213.636 202.4 213.84L200.18 215.69C199.97 215.865 199.815 216.096 199.732 216.357C199.648 216.617 199.641 216.896 199.71 217.16L200.48 220.04C200.53 220.25 200.18 220.61 200 221.17C199.3 223.43 198 224.65 199.07 224.82" stroke="url(#paint36_linear)" stroke-width="5" stroke-miterlimit="10" stroke-linecap="round"/>
<path d="M220.58 228.46L221.52 221.31C221.52 221.1 218.26 222.06 218.08 221.96L215.33 217.81C215.257 217.772 215.195 217.717 215.149 217.65C215.103 217.582 215.074 217.503 215.066 217.422C215.058 217.34 215.071 217.258 215.103 217.182C215.135 217.107 215.186 217.041 215.25 216.99L222.04 211.64C222.14 211.563 222.206 211.45 222.224 211.325C222.243 211.2 222.213 211.073 222.14 210.97L220.14 208.12C220.081 208.037 220.049 207.937 220.049 207.835C220.049 207.733 220.081 207.633 220.14 207.55L223.78 202.55C223.827 202.484 223.857 202.408 223.868 202.328C223.878 202.247 223.869 202.166 223.84 202.09L222 197.11C221.966 197.016 221.961 196.915 221.986 196.818C222.011 196.722 222.065 196.635 222.14 196.57L225.14 194.02C225.218 193.952 225.272 193.862 225.296 193.761C225.319 193.66 225.31 193.555 225.27 193.46L223.2 188.46C223.162 188.369 223.152 188.269 223.172 188.173C223.192 188.077 223.24 187.989 223.31 187.92L226.31 184.99C226.401 184.898 226.452 184.774 226.452 184.645C226.452 184.516 226.401 184.392 226.31 184.3L224.88 182.8C224.83 182.754 224.791 182.698 224.764 182.636C224.736 182.575 224.722 182.508 224.722 182.44C224.722 182.372 224.736 182.305 224.764 182.243C224.791 182.182 224.83 182.126 224.88 182.08L228.62 179.08C228.713 179.005 228.776 178.899 228.796 178.781C228.817 178.663 228.793 178.542 228.73 178.44L227.05 175.69C227.003 175.615 226.978 175.53 226.975 175.442C226.973 175.354 226.995 175.267 227.038 175.191C227.081 175.114 227.144 175.05 227.22 175.006C227.296 174.962 227.382 174.939 227.47 174.94H231C231.119 174.941 231.234 174.899 231.324 174.822C231.414 174.745 231.473 174.637 231.49 174.52L232.09 170.72C232.107 170.603 232.166 170.495 232.256 170.418C232.346 170.341 232.461 170.299 232.58 170.3H236.84C236.912 170.3 236.983 170.284 237.048 170.253C237.113 170.222 237.17 170.178 237.216 170.122C237.262 170.067 237.295 170.002 237.313 169.933C237.331 169.863 237.333 169.791 237.32 169.72L236.71 166.56C236.697 166.489 236.699 166.417 236.717 166.347C236.735 166.278 236.768 166.213 236.814 166.158C236.86 166.102 236.917 166.058 236.982 166.027C237.047 165.996 237.118 165.98 237.19 165.98H241.6C241.664 165.98 241.728 165.967 241.788 165.943C241.847 165.918 241.901 165.882 241.946 165.836C241.992 165.791 242.028 165.737 242.053 165.678C242.077 165.618 242.09 165.554 242.09 165.49V162.25C242.09 162.186 242.103 162.122 242.127 162.062C242.152 162.003 242.188 161.949 242.234 161.904C242.279 161.858 242.333 161.822 242.392 161.797C242.452 161.773 242.516 161.76 242.58 161.76H246C246.13 161.76 246.255 161.708 246.346 161.616C246.438 161.525 246.49 161.4 246.49 161.27V157.65C246.49 157.38 250.76 156.23 251.03 156.23L258.03 159.5" stroke="url(#paint37_linear)" stroke-width="5" stroke-miterlimit="10" stroke-linecap="round"/>
<path d="M248.93 162L239.93 171.21C239.682 171.478 239.533 171.822 239.508 172.185C239.483 172.549 239.582 172.911 239.79 173.21V173.21C239.914 173.396 239.998 173.606 240.036 173.826C240.073 174.046 240.065 174.272 240.01 174.489C239.955 174.705 239.856 174.908 239.718 175.084C239.58 175.26 239.407 175.405 239.21 175.51L236.21 177.09C235.844 177.286 235.568 177.617 235.441 178.012C235.314 178.408 235.346 178.838 235.53 179.21C235.87 179.88 238.06 183.3 238.01 183.54C237.92 184.04 232.44 185.18 232.07 185.68C231.84 186 232.29 187.86 232.65 189.19C232.751 189.576 232.705 189.985 232.52 190.339C232.335 190.692 232.025 190.964 231.65 191.1L230.3 191.62C230.004 191.74 229.75 191.946 229.572 192.212C229.393 192.477 229.299 192.79 229.3 193.11V198.21C229.301 198.515 229.215 198.813 229.05 199.07C228.333 200.247 227.492 201.343 226.54 202.34C225.74 203.01 226.22 206.02 226.44 207.21C226.502 207.53 226.463 207.862 226.33 208.16L225.07 210.96C224.94 211.248 224.898 211.568 224.95 211.88L226.1 218.73C226.166 219.127 226.08 219.534 225.86 219.87L224.27 222.31C224.145 222.501 224.063 222.717 224.028 222.943C223.994 223.169 224.008 223.4 224.07 223.62L225.62 229.1C225.699 229.377 225.701 229.67 225.627 229.948C225.553 230.226 225.406 230.479 225.2 230.68L222.56 233.28" stroke="url(#paint38_linear)" stroke-width="5" stroke-miterlimit="10" stroke-linecap="round"/>
<path d="M228.3 233.68L230.94 231.08C231.146 230.879 231.293 230.626 231.367 230.348C231.441 230.07 231.439 229.777 231.36 229.5L229.82 224C229.758 223.78 229.744 223.549 229.778 223.323C229.813 223.097 229.895 222.881 230.02 222.69L231.61 220.25C231.83 219.914 231.916 219.507 231.85 219.11L230.7 212.26C230.648 211.948 230.69 211.628 230.82 211.34L232.08 208.54C232.213 208.242 232.252 207.91 232.19 207.59C231.97 206.41 231.49 203.39 232.29 202.72C233.242 201.723 234.083 200.627 234.8 199.45C234.965 199.193 235.051 198.895 235.05 198.59V193.49C235.049 193.17 235.143 192.857 235.322 192.592C235.5 192.326 235.754 192.12 236.05 192L237.4 191.48C237.776 191.339 238.087 191.064 238.272 190.708C238.457 190.351 238.502 189.938 238.4 189.55C238.07 188.24 240.53 188.6 240.75 188.29C242.106 187.121 243.139 185.623 243.75 183.94C243.84 183.71 241.66 180.26 241.32 179.59C241.136 179.217 241.104 178.788 241.231 178.392C241.358 177.997 241.634 177.666 242 177.47L245 175.89C245.197 175.785 245.37 175.64 245.508 175.464C245.646 175.288 245.745 175.085 245.8 174.869C245.855 174.652 245.863 174.426 245.826 174.206C245.788 173.986 245.704 173.776 245.58 173.59V173.59C245.372 173.291 245.272 172.929 245.298 172.565C245.323 172.202 245.472 171.857 245.72 171.59L250.07 171.09L252.22 167.61C252.925 167.27 253.722 167.169 254.49 167.32C255.87 167.641 257.317 167.49 258.6 166.89L262.18 165.09C263.04 165.83 260.05 170.79 261.18 170.55L261.7 170.44C262.481 170.268 263.297 170.359 264.02 170.699C264.744 171.039 265.335 171.609 265.7 172.32L265.79 172.5" stroke="url(#paint39_linear)" stroke-width="5" stroke-miterlimit="10" stroke-linecap="round"/>
<path d="M252 155.53C252 155.53 258.1 153.53 260.61 153.81C263.12 154.09 267.08 158.14 267.36 158.81L268.17 160.72C268.348 161.147 268.685 161.487 269.11 161.67V161.67C269.383 161.788 269.622 161.972 269.806 162.206C269.989 162.44 270.111 162.717 270.16 163.01L267.66 166.47C267.81 167.33 271.34 166.22 272.21 166.22H273C273.253 166.219 273.504 166.272 273.735 166.375C273.966 166.479 274.172 166.63 274.34 166.82C275.26 167.82 277.01 169.9 276.93 170.25C276.665 170.694 276.327 171.089 275.93 171.42C275.751 171.595 275.611 171.806 275.52 172.039C275.428 172.272 275.386 172.522 275.398 172.772C275.409 173.022 275.473 173.267 275.585 173.49C275.698 173.714 275.856 173.912 276.05 174.07C276.776 174.782 277.67 175.298 278.65 175.57C279.81 175.57 280.43 178.9 280.08 179.08C277.75 180.21 281.87 182.08 282.7 183.43C282.84 183.65 282.93 183.899 282.963 184.159C282.996 184.418 282.971 184.681 282.89 184.93C282.568 185.748 282.359 186.606 282.27 187.48C282.38 187.74 283.93 190.3 284.85 191.8C285.043 192.118 285.132 192.489 285.103 192.861C285.074 193.232 284.93 193.585 284.69 193.87L282.52 196.46C282.289 196.734 282.146 197.072 282.111 197.429C282.075 197.786 282.148 198.145 282.32 198.46L286.82 200.59C287.01 200.94 284.45 202.69 284.38 203.09L283.57 207.78C283.517 208.085 283.545 208.399 283.65 208.69L285.26 213.16C285.345 213.394 285.38 213.643 285.363 213.891C285.345 214.139 285.276 214.38 285.16 214.6L283.82 217.14C283.733 217.303 283.622 217.451 283.49 217.58L282.33 218.71C282.14 218.894 281.994 219.118 281.902 219.366C281.809 219.614 281.773 219.879 281.796 220.142C281.819 220.405 281.901 220.66 282.035 220.888C282.168 221.116 282.351 221.312 282.57 221.46L282.7 226.9" stroke="url(#paint40_linear)" stroke-width="5" stroke-miterlimit="10" stroke-linecap="round"/>
<path d="M259.25 164.2L264.56 158.7C264.642 158.639 264.719 158.572 264.79 158.5C265.15 158.13 266.44 156.86 266.79 157.26C267.14 157.66 268.26 157.36 269.26 157.17C269.664 157.084 270.085 157.126 270.464 157.289C270.844 157.451 271.164 157.728 271.38 158.08L272.1 159.22C272.263 159.478 272.482 159.697 272.74 159.86L275.6 161.65C276.005 161.902 276.309 162.288 276.46 162.74L277.33 165.36C277.467 165.762 277.726 166.111 278.07 166.36L279.97 167.74C280.124 167.85 280.262 167.982 280.38 168.13L281.65 169.74C281.919 170.08 282.073 170.497 282.09 170.93L282.15 172.61C282.168 173.078 282.345 173.525 282.653 173.878C282.96 174.231 283.379 174.468 283.84 174.55C284.126 174.601 284.397 174.712 284.637 174.876C284.877 175.039 285.079 175.252 285.23 175.5C285.381 175.747 285.478 176.024 285.514 176.312C285.551 176.6 285.525 176.893 285.44 177.17L285.2 177.95C285.075 178.355 285.08 178.79 285.212 179.193C285.345 179.596 285.599 179.948 285.94 180.2L288.17 181.85C288.52 182.109 288.778 182.472 288.907 182.887C289.037 183.303 289.031 183.748 288.89 184.16L288.75 184.58C288.617 184.971 288.605 185.393 288.715 185.791C288.826 186.189 289.054 186.544 289.37 186.81L291.63 188.71C292.035 189.049 292.294 189.532 292.352 190.058C292.409 190.583 292.262 191.111 291.94 191.53L290.57 193.31C290.241 193.738 290.095 194.279 290.162 194.814C290.23 195.349 290.506 195.837 290.93 196.17L291.14 196.33C291.451 196.575 291.684 196.904 291.812 197.279C291.94 197.653 291.956 198.056 291.86 198.44L291.24 200.9C291.138 201.31 291.165 201.741 291.317 202.134C291.469 202.528 291.739 202.865 292.09 203.1L292.54 203.4C292.765 203.551 292.958 203.745 293.107 203.971C293.257 204.196 293.36 204.449 293.411 204.715C293.462 204.981 293.46 205.255 293.405 205.52C293.35 205.785 293.243 206.036 293.09 206.26L290.95 209.38C290.768 209.646 290.652 209.952 290.61 210.271C290.568 210.591 290.602 210.916 290.71 211.22L291.81 214.35C291.838 214.428 291.862 214.509 291.88 214.59L292.66 218.15" stroke="url(#paint41_linear)" stroke-width="5" stroke-miterlimit="10" stroke-linecap="round"/>
<path d="M194.46 214L199.58 212.8C199.793 212.75 199.993 212.655 200.166 212.52C200.338 212.385 200.48 212.215 200.58 212.02L202.47 208.37C202.644 208.032 202.94 207.771 203.298 207.642C203.656 207.512 204.049 207.522 204.4 207.67L205.04 207.94C205.292 208.047 205.569 208.083 205.84 208.044C206.111 208.006 206.367 207.894 206.579 207.722C206.792 207.549 206.954 207.322 207.047 207.064C207.141 206.807 207.162 206.529 207.11 206.26L206 200.8C205.946 200.537 205.964 200.263 206.051 200.009C206.137 199.755 206.291 199.528 206.495 199.353C206.699 199.177 206.946 199.059 207.21 199.012C207.475 198.964 207.748 198.987 208 199.08L209.77 199.69C209.99 199.766 210.225 199.79 210.457 199.76C210.688 199.73 210.909 199.647 211.103 199.517C211.297 199.387 211.458 199.214 211.573 199.012C211.689 198.809 211.756 198.583 211.77 198.35L211.99 194.35C212.002 194.126 212.064 193.908 212.17 193.711C212.277 193.514 212.426 193.343 212.607 193.211C212.788 193.079 212.996 192.989 213.216 192.947C213.437 192.906 213.663 192.913 213.88 192.97L214.93 193.25C215.305 193.351 215.705 193.303 216.045 193.117C216.386 192.93 216.642 192.62 216.76 192.25L218.52 186.04C218.626 185.663 218.873 185.342 219.211 185.144C219.548 184.947 219.95 184.888 220.33 184.98L222.4 185.48C222.599 185.528 222.806 185.536 223.008 185.501C223.211 185.467 223.404 185.392 223.576 185.28C223.748 185.169 223.896 185.024 224.01 184.854C224.124 184.683 224.202 184.492 224.24 184.29L225.24 178.76C225.281 178.508 225.385 178.271 225.542 178.07C225.699 177.87 225.905 177.712 226.139 177.612C226.374 177.512 226.63 177.474 226.884 177.499C227.137 177.525 227.38 177.615 227.59 177.76L231.01 180.16C231.301 180.366 231.655 180.462 232.01 180.43C233.95 180.26 240.3 179.55 239.17 177.43C238.17 175.52 241.72 180.31 243.61 181.43C244.524 181.513 245.445 181.383 246.3 181.05C246.953 180.864 247.549 180.515 248.03 180.036C248.511 179.557 248.862 178.963 249.05 178.31L249.25 177.61C249.595 176.602 250.199 175.702 251 175C252.31 173.74 253.38 171.8 255.27 172C256.64 172.13 258.89 174.33 260.14 173.76L265.88 171.52" stroke="url(#paint42_linear)" stroke-width="5" stroke-miterlimit="10" stroke-linecap="round"/>
<path d="M186.48 205.06L186.72 200.38C186.739 199.984 186.859 199.599 187.067 199.262C187.275 198.925 187.565 198.645 187.91 198.45L189.17 197.74C189.606 197.495 189.952 197.118 190.159 196.663C190.366 196.208 190.422 195.699 190.32 195.21L189.62 191.83C189.54 191.448 189.557 191.052 189.669 190.679C189.78 190.305 189.983 189.965 190.259 189.689C190.535 189.413 190.875 189.21 191.249 189.099C191.622 188.987 192.018 188.97 192.4 189.05L193.06 189.19C193.417 189.264 193.787 189.254 194.14 189.16C194.493 189.067 194.819 188.892 195.093 188.651C195.367 188.409 195.58 188.107 195.717 187.768C195.854 187.43 195.909 187.064 195.88 186.7L195.71 184.63C195.684 184.31 195.724 183.988 195.827 183.684C195.93 183.38 196.095 183.1 196.31 182.862C196.526 182.624 196.788 182.433 197.08 182.3C197.373 182.167 197.689 182.096 198.01 182.09H198.48C199.006 182.081 199.513 181.895 199.921 181.563C200.329 181.232 200.614 180.773 200.73 180.26C201.29 177.76 202.3 173.51 202.68 173.13C203.06 172.75 205.49 173.55 207.37 174.2C207.938 174.397 208.561 174.368 209.108 174.119C209.656 173.869 210.086 173.418 210.31 172.86C211.31 170.47 212.9 166.97 214 167.41C215.1 167.85 217.81 170.13 219.86 171.89C220.134 172.125 220.458 172.293 220.807 172.383C221.157 172.472 221.522 172.48 221.875 172.406C222.228 172.331 222.559 172.176 222.842 171.954C223.126 171.731 223.354 171.445 223.51 171.12L225.2 167.57C225.352 167.251 225.574 166.971 225.849 166.75C226.125 166.529 226.446 166.373 226.79 166.293C227.134 166.213 227.492 166.212 227.836 166.289C228.181 166.367 228.503 166.521 228.78 166.74L232.56 169.74C232.816 169.943 233.112 170.091 233.429 170.173C233.746 170.255 234.076 170.271 234.399 170.218C234.722 170.165 235.03 170.046 235.304 169.867C235.578 169.688 235.812 169.454 235.99 169.18L238.72 164.97C239.02 164.508 239.472 164.165 239.998 164.002C240.525 163.84 241.092 163.867 241.6 164.08L247.23 166.44C247.54 166.57 248.23 165.58 248.97 164.44C249.222 164.043 249.554 163.703 249.945 163.442C250.337 163.181 250.778 163.005 251.242 162.925C251.705 162.845 252.18 162.863 252.636 162.977C253.092 163.092 253.519 163.3 253.89 163.59L255.21 164.59" stroke="url(#paint43_linear)" stroke-width="5" stroke-miterlimit="10" stroke-linecap="round"/>
<path d="M193.73 211.45L193.67 206.76C193.665 206.363 193.761 205.972 193.948 205.622C194.135 205.273 194.407 204.976 194.74 204.76L196 204C196.42 203.73 196.744 203.334 196.923 202.868C197.103 202.403 197.13 201.892 197 201.41L196.08 198.09C195.966 197.711 195.95 197.309 196.033 196.921C196.116 196.534 196.295 196.174 196.555 195.875C196.814 195.576 197.145 195.347 197.517 195.209C197.888 195.072 198.288 195.031 198.68 195.09L199.35 195.19C199.712 195.242 200.082 195.209 200.429 195.093C200.776 194.977 201.092 194.782 201.35 194.523C201.608 194.263 201.803 193.947 201.917 193.599C202.032 193.252 202.064 192.882 202.01 192.52L201.71 190.47C201.664 190.152 201.683 189.828 201.768 189.517C201.852 189.207 201.999 188.918 202.199 188.666C202.4 188.415 202.65 188.208 202.934 188.057C203.218 187.906 203.53 187.815 203.85 187.79H204.32C204.849 187.748 205.348 187.527 205.735 187.163C206.123 186.8 206.375 186.316 206.45 185.79C206.85 183.26 207.59 178.95 207.94 178.54C208.29 178.13 210.77 178.78 212.68 179.31C213.257 179.469 213.872 179.401 214.401 179.12C214.929 178.839 215.329 178.367 215.52 177.8C216.33 175.36 217.73 171.75 218.86 172.12C219.99 172.49 222.86 174.6 225 176.22C225.287 176.438 225.621 176.587 225.976 176.655C226.33 176.723 226.695 176.707 227.043 176.611C227.391 176.514 227.711 176.338 227.98 176.097C228.248 175.855 228.457 175.555 228.59 175.22L230.05 171.57C230.182 171.243 230.386 170.95 230.647 170.712C230.908 170.475 231.219 170.299 231.557 170.198C231.895 170.097 232.252 170.074 232.6 170.129C232.949 170.185 233.28 170.319 233.57 170.52L238.23 171.42C239.37 172.21 245.32 169.85 246 168.64" stroke="url(#paint44_linear)" stroke-width="5" stroke-miterlimit="10" stroke-linecap="round"/>
<path d="M298.86 231.15L294.86 229.45C294.516 229.128 294.264 228.72 294.129 228.269C293.994 227.817 293.98 227.338 294.09 226.88C294.44 225.7 300.09 221.52 300.09 221.52C300.065 221.141 299.897 220.785 299.621 220.523C299.345 220.262 298.98 220.114 298.6 220.11H297.91C297.636 220.106 297.369 220.028 297.136 219.884C296.903 219.74 296.714 219.535 296.589 219.291C296.463 219.048 296.406 218.775 296.424 218.502C296.442 218.228 296.534 217.965 296.69 217.74L299.89 213.13C300.04 212.913 300.13 212.66 300.151 212.397C300.173 212.134 300.125 211.87 300.012 211.631C299.9 211.393 299.727 211.188 299.511 211.036C299.295 210.885 299.043 210.793 298.78 210.77L296.92 210.61C296.692 210.589 296.471 210.517 296.274 210.398C296.078 210.279 295.912 210.117 295.787 209.925C295.663 209.732 295.584 209.513 295.557 209.285C295.53 209.058 295.555 208.827 295.63 208.61L297.04 204.87C297.115 204.662 297.143 204.44 297.123 204.22C297.102 204 297.034 203.787 296.922 203.597C296.811 203.406 296.659 203.242 296.477 203.116C296.295 202.991 296.088 202.907 295.87 202.87L294.8 202.7C294.409 202.638 294.058 202.426 293.822 202.108C293.587 201.79 293.485 201.392 293.54 201L294.43 194.6C294.483 194.214 294.384 193.823 294.155 193.508C293.925 193.193 293.583 192.979 293.2 192.91L291.1 192.54C290.899 192.503 290.707 192.426 290.536 192.313C290.366 192.2 290.22 192.054 290.107 191.882C289.995 191.711 289.919 191.519 289.883 191.318C289.848 191.116 289.853 190.909 289.9 190.71L291.19 185.23C291.248 184.984 291.244 184.728 291.177 184.484C291.111 184.24 290.984 184.017 290.809 183.835C290.634 183.653 290.416 183.518 290.175 183.442C289.934 183.366 289.678 183.351 289.43 183.4L285.33 184.22C284.989 184.288 284.636 184.235 284.33 184.07C282.63 183.14 277.09 179.92 278.98 178.44C280.68 177.1 275.08 179.77 273.98 177.85C271.98 174.4 268.38 174.08 268.11 173.46L269.66 170.46C268.364 168.992 266.949 167.634 265.43 166.4L259 165.27" stroke="url(#paint45_linear)" stroke-width="5" stroke-miterlimit="10" stroke-linecap="round"/>
<path d="M302.64 190C302.64 189.53 300.86 186.9 298.92 186.73C298.332 186.679 297.786 186.405 297.394 185.965C297.001 185.524 296.792 184.95 296.81 184.36C296.89 181.83 296.81 178.03 295.64 177.99C294.47 177.95 293.05 176.43 290.52 177.2C289.87 177.4 289.52 176.68 289.33 175.69C289.259 175.283 289.095 174.897 288.852 174.562C288.608 174.228 288.291 173.954 287.925 173.761C287.56 173.568 287.154 173.461 286.741 173.449C286.327 173.436 285.917 173.519 285.54 173.69C285.53 173.343 285.442 173.002 285.282 172.694C285.123 172.386 284.896 172.117 284.618 171.909C284.34 171.7 284.019 171.557 283.678 171.49C283.338 171.422 282.986 171.433 282.65 171.52L278.07 172.73C277.759 172.811 277.434 172.825 277.116 172.773C276.799 172.721 276.496 172.603 276.227 172.427C275.957 172.251 275.728 172.021 275.553 171.751C275.378 171.481 275.261 171.178 275.21 170.86L274.42 165.99C274.334 165.457 274.063 164.971 273.656 164.617C273.248 164.262 272.73 164.062 272.19 164.05L266.19 163.94C265.86 163.94 265.62 162.77 265.42 161.45C265.352 160.992 265.188 160.554 264.94 160.163C264.692 159.772 264.365 159.438 263.979 159.182C263.594 158.925 263.159 158.753 262.702 158.675C262.246 158.597 261.779 158.616 261.33 158.73L259.74 159.14" stroke="url(#paint46_linear)" stroke-width="4.91" stroke-miterlimit="10" stroke-linecap="round"/>
<path d="M300.23 227.69L302.17 223.42C302.335 223.059 302.405 222.663 302.375 222.268C302.346 221.873 302.217 221.492 302 221.16L301.21 219.95C300.936 219.533 300.803 219.04 300.828 218.542C300.853 218.044 301.036 217.567 301.35 217.18L303.53 214.51C303.777 214.207 303.945 213.848 304.018 213.465C304.091 213.081 304.068 212.685 303.95 212.313C303.831 211.941 303.622 211.604 303.341 211.333C303.06 211.062 302.716 210.865 302.34 210.76L301.69 210.58C301.338 210.482 301.014 210.303 300.743 210.057C300.473 209.812 300.263 209.506 300.131 209.166C299.999 208.825 299.948 208.458 299.983 208.094C300.017 207.73 300.136 207.38 300.33 207.07L301.43 205.31C301.6 205.038 301.712 204.734 301.761 204.417C301.809 204.1 301.792 203.777 301.71 203.467C301.629 203.157 301.484 202.867 301.287 202.615C301.089 202.362 300.842 202.153 300.56 202L300.15 201.78C299.686 201.532 299.318 201.134 299.108 200.651C298.897 200.169 298.856 199.629 298.99 199.12C299.64 196.65 300.71 192.4 300.55 191.88C300.39 191.36 297.86 190.96 295.9 190.67C295.306 190.585 294.767 190.275 294.395 189.804C294.022 189.334 293.845 188.738 293.9 188.14C294.14 185.58 294.31 181.71 293.13 181.6C291.95 181.49 288.48 182.27 285.86 182.88C285.509 182.964 285.142 182.965 284.79 182.883C284.439 182.802 284.11 182.64 283.831 182.41C283.552 182.181 283.33 181.89 283.183 181.56C283.035 181.23 282.966 180.871 282.98 180.51L283.11 176.58C283.123 176.226 283.055 175.874 282.913 175.55C282.77 175.226 282.556 174.939 282.287 174.709C282.018 174.479 281.7 174.313 281.358 174.223C281.016 174.133 280.657 174.122 280.31 174.19L275.68 173.14C274.32 173.41 267.4 165.85 262.99 169.38" stroke="url(#paint47_linear)" stroke-width="5" stroke-miterlimit="10" stroke-linecap="round"/>
<path d="M214.54 567.74C215.4 569.44 231.06 565.22 231.06 565.22L230.7 563.65L226.2 544C225.997 538.219 226.416 532.432 227.45 526.74C222.8 529.23 212.69 527.43 212.69 527.43C212.69 527.43 213.63 534.05 212.55 536.2C212.33 536.676 212.165 537.176 212.06 537.69C211.435 541.112 211.394 544.615 211.94 548.05C212.35 550.26 212.94 556.85 213.53 561.83C213.677 563.828 214.015 565.807 214.54 567.74V567.74Z" fill="url(#paint48_linear)"/>
<path d="M213.26 560.89C213.36 561.24 213.45 561.54 213.52 561.83C212.93 556.83 212.35 550.26 211.93 548.05C211.384 544.615 211.425 541.112 212.05 537.69C211.298 538.473 210.714 539.401 210.332 540.417C209.951 541.433 209.78 542.516 209.83 543.6C210 547 212 556.45 213.26 560.89Z" fill="url(#paint49_linear)"/>
<path d="M213.16 570.74C214.64 575.15 221.3 579.33 226.82 578.54C231.94 577.8 235.69 570.42 230.7 563.65L231.06 565.22C231.06 565.22 215.4 569.44 214.54 567.74C214.019 565.813 213.685 563.841 213.54 561.85V561.85C213.46 561.56 212.81 556.18 212.71 555.85C212.17 559 212.33 568.28 213.16 570.74Z" fill="#F7E0DD"/>
<path d="M285.68 562.34C285.68 563.64 278.74 566.96 276.95 567.54C275.16 568.12 271.66 565.66 271.81 560.89C271.96 556.12 263.42 536.89 262.99 535.74C262.67 534.89 263.44 533.96 263.87 533.54C264.03 533.38 264.14 533.29 264.14 533.29L263 527.5L278.74 524.18C278.74 524.18 279.74 533.29 280.34 535.89C280.94 538.49 280.77 542.98 281.64 547.56C282.43 551.72 285.12 559.41 285.64 561.78C285.671 561.965 285.685 562.152 285.68 562.34V562.34Z" fill="url(#paint50_linear)"/>
<path d="M293.34 575.06C291.02 576.65 280.48 574.19 275.41 573.06C270.34 571.93 270.07 563.52 269.77 560.35C269.64 558.88 267.91 555.69 265.82 552.35C264.48 550.16 263 547.9 261.71 545.98L260.26 543.79C259.907 543.257 259.67 542.656 259.565 542.025C259.46 541.394 259.489 540.749 259.65 540.13C260.65 536.44 262.36 534.58 263.87 533.64C263.44 534.06 262.66 534.99 262.99 535.84C263.42 537 271.99 556.22 271.81 560.99C271.63 565.76 275.17 568.22 276.95 567.64C278.73 567.06 285.68 563.74 285.68 562.44C285.671 562.251 285.645 562.064 285.6 561.88C289 565.54 295.21 573.77 293.34 575.06Z" fill="url(#paint51_linear)"/>
<path d="M266.24 564.36H264.24L261.67 545.9C262.96 547.83 264.44 550.09 265.78 552.27L266.24 564.36Z" fill="url(#paint52_linear)"/>
<path d="M278.81 325.24C291.32 362.76 287.71 438.95 287.71 438.95L280.37 529.95H260.83C256.04 474.95 262.31 441.95 262.31 441.95L255.31 381.59L245.53 443.12L229.39 529.97H209.43C208.84 515.31 212.67 478.67 220.29 440.19C214.43 406.19 212.95 397.89 215.29 368.69C217.63 339.49 232.29 324.69 232.29 324.69L278.81 325.24Z" fill="url(#paint53_linear)"/>
<path d="M266.3 312V287.72L252.82 249.61L237.58 237.88C187.16 259.57 180.5 317.62 180.5 317.62L198.29 351L211.19 339.27L203 317L222.35 284.46L229.7 309.79C241.83 311.43 254.2 312.77 266.3 312Z" fill="white"/>
<path d="M284.67 286.55L316.72 302.55L320.24 283.55C320.24 283.55 283.58 261.93 280.84 248.64C266.3 238.97 262.78 236.06 262.78 236.06L262.43 237.82L260.83 245.82L266.3 287.64V312C270.207 311.772 274.094 311.295 277.94 310.57C277.94 307.22 278.15 304.24 278.81 302.92C280.76 299.05 284.67 286.55 284.67 286.55Z" fill="white"/>
<path d="M277.94 310.61C274.094 311.321 270.206 311.786 266.3 312C254.2 312.73 241.82 311.39 229.68 309.79L234.21 325.39L266.3 331.07L278.81 325.21C278.81 325.21 278 317.19 277.94 310.61Z" fill="url(#paint54_linear)"/>
<path d="M397.74 276.54C397 274.6 384.61 280.9 384.42 279.54C384.31 278.73 396.08 274.48 395.42 273.01C394.76 271.54 388.62 274.62 384.61 275.77C380.6 276.92 376 276.83 374.76 275.33C373.52 273.83 382.91 269.74 380.53 267.33C379.31 266.1 365.14 277.68 365.14 277.68C364.188 278.597 363.377 279.648 362.73 280.8L362.63 280.71C355.89 285.55 319.88 285.71 319.88 285.71C318.107 290.266 317.195 295.111 317.19 300C336.71 304.11 366.41 291.35 366.41 291.35C370.171 291.851 373.97 292.011 377.76 291.83C380.813 291.429 383.824 290.759 386.76 289.83C390.53 288.71 395.42 287.2 394.71 285.83C394 284.46 387.81 287.5 387.27 286.72C386.73 285.94 398.35 282.36 397.73 280.72C397.11 279.08 385.99 284.31 385.73 283.55C385.47 282.79 398.32 278.06 397.74 276.54Z" fill="url(#paint55_linear)"/>
<path d="M209.35 341L213.35 348.41L227.11 356.41L222.22 373.59C222.22 373.59 208.36 365.12 206.6 361.59C204.84 358.06 205.6 356.59 205.6 356.59L200.26 349.21L209.35 341Z" fill="url(#paint56_linear)"/>
<path d="M229.33 328.28C229.33 328.28 254.27 333.72 260.83 333.91C267.39 334.1 280.55 331.09 280.55 331.09L281.48 334.91C281.48 334.91 270.48 338.11 261.48 338.01C252.85 337.91 226.82 331.91 226.82 331.91L229.33 328.28Z" fill="url(#paint57_linear)"/>
<path d="M238.66 328.93L241.01 329.52L238.66 335.38L236.22 334.79L238.66 328.93Z" fill="url(#paint58_linear)"/>
<path d="M272.45 332.15L274.63 331.11L276.57 337.11L274.32 338.22L272.45 332.15Z" fill="url(#paint59_linear)"/>
<path d="M237.57 237.88H229.53L230.16 247.73L242.72 251.98L241.56 259.6L266.3 287.72L252.82 249.61L237.57 237.88Z" fill="white"/>
<path d="M228.95 350.07L220.41 380.11L222.66 380.99L231.83 349.74L228.95 350.07Z" fill="url(#paint60_linear)"/>
<path d="M264.72 174C264.72 174 266.84 165.25 253.65 156.5" stroke="url(#paint61_linear)" stroke-width="5" stroke-miterlimit="10" stroke-linecap="round"/>
<defs>
<linearGradient id="paint0_linear" x1="7.50001" y1="355.9" x2="634.01" y2="355.9" gradientUnits="userSpaceOnUse">
<stop stop-color="#F0F2F5"/>
<stop offset="0.99" stop-color="#F5F7F8"/>
</linearGradient>
<linearGradient id="paint1_linear" x1="95.65" y1="518.89" x2="76.36" y2="372.54" gradientUnits="userSpaceOnUse">
<stop stop-color="#1F1844"/>
<stop offset="0.99" stop-color="#3D3C99"/>
</linearGradient>
<linearGradient id="paint2_linear" x1="94.6801" y1="515.12" x2="77.7101" y2="386.39" gradientUnits="userSpaceOnUse">
<stop stop-color="#3F3D9E"/>
<stop offset="0.99" stop-color="#423E9F"/>
</linearGradient>
<linearGradient id="paint3_linear" x1="104.56" y1="465.06" x2="176.13" y2="448.61" gradientUnits="userSpaceOnUse">
<stop offset="0.01" stop-color="#BBC0D9"/>
<stop offset="1" stop-color="#D6DBF8"/>
</linearGradient>
<linearGradient id="paint4_linear" x1="107.23" y1="477.807" x2="162.901" y2="478.001" gradientUnits="userSpaceOnUse">
<stop stop-color="#BAC6D8"/>
<stop offset="0.99" stop-color="#D6DBF8"/>
</linearGradient>
<linearGradient id="paint5_linear" x1="2247.05" y1="11485.1" x2="1729.66" y2="10987.8" gradientUnits="userSpaceOnUse">
<stop stop-color="#1F1844"/>
<stop offset="0.99" stop-color="#3D3C99"/>
</linearGradient>
<linearGradient id="paint6_linear" x1="2593" y1="6942.07" x2="2077.29" y2="6577.73" gradientUnits="userSpaceOnUse">
<stop stop-color="#1F1844"/>
<stop offset="0.99" stop-color="#3D3C99"/>
</linearGradient>
<linearGradient id="paint7_linear" x1="2483.98" y1="10435.3" x2="2992.36" y2="9966.19" gradientUnits="userSpaceOnUse">
<stop stop-color="#1F1844"/>
<stop offset="0.99" stop-color="#3D3C99"/>
</linearGradient>
<linearGradient id="paint8_linear" x1="2332.35" y1="7102.18" x2="2720.87" y2="6776.29" gradientUnits="userSpaceOnUse">
<stop stop-color="#1F1844"/>
<stop offset="0.99" stop-color="#3D3C99"/>
</linearGradient>
<linearGradient id="paint9_linear" x1="2988.9" y1="5303.17" x2="2190.73" y2="5005.67" gradientUnits="userSpaceOnUse">
<stop stop-color="#1F1844"/>
<stop offset="0.99" stop-color="#3D3C99"/>
</linearGradient>
<linearGradient id="paint10_linear" x1="2167.29" y1="8412.99" x2="2524.31" y2="8107.6" gradientUnits="userSpaceOnUse">
<stop stop-color="#1F1844"/>
<stop offset="0.99" stop-color="#3D3C99"/>
</linearGradient>
<linearGradient id="paint11_linear" x1="102.19" y1="420.73" x2="95.17" y2="449.42" gradientUnits="userSpaceOnUse">
<stop offset="0.01" stop-color="#3D3C99"/>
<stop offset="1" stop-color="#1F1844"/>
</linearGradient>
<linearGradient id="paint12_linear" x1="79.9801" y1="461.126" x2="86.4926" y2="454.529" gradientUnits="userSpaceOnUse">
<stop stop-color="#E0E4EB"/>
<stop offset="0.99" stop-color="#F3F6FD"/>
</linearGradient>
<linearGradient id="paint13_linear" x1="33718.1" y1="60379.4" x2="33795.3" y2="60138.7" gradientUnits="userSpaceOnUse">
<stop stop-color="#E0E4EB"/>
<stop offset="0.99" stop-color="#F3F6FD"/>
</linearGradient>
<linearGradient id="paint14_linear" x1="7395.33" y1="-53421.2" x2="7541.56" y2="-53240.1" gradientUnits="userSpaceOnUse">
<stop stop-color="#E0E4EB"/>
<stop offset="0.99" stop-color="#F3F6FD"/>
</linearGradient>
<linearGradient id="paint15_linear" x1="1294.05" y1="5979.27" x2="1403.78" y2="5869.56" gradientUnits="userSpaceOnUse">
<stop offset="0.01" stop-color="#BBC0D9"/>
<stop offset="1" stop-color="#D6DBF8"/>
</linearGradient>
<linearGradient id="paint16_linear" x1="1217.25" y1="-53932.7" x2="1332.2" y2="-53736" gradientUnits="userSpaceOnUse">
<stop stop-color="#E0E4EB"/>
<stop offset="0.99" stop-color="#F3F6FD"/>
</linearGradient>
<linearGradient id="paint17_linear" x1="22971.8" y1="89820.6" x2="23139.2" y2="89780.8" gradientUnits="userSpaceOnUse">
<stop stop-color="#E0E4EB"/>
<stop offset="0.99" stop-color="#F3F6FD"/>
</linearGradient>
<linearGradient id="paint18_linear" x1="34610.9" y1="70911.5" x2="34621.6" y2="70641.6" gradientUnits="userSpaceOnUse">
<stop stop-color="#E0E4EB"/>
<stop offset="0.99" stop-color="#F3F6FD"/>
</linearGradient>
<linearGradient id="paint19_linear" x1="1409.61" y1="7059.74" x2="1536.84" y2="6929.38" gradientUnits="userSpaceOnUse">
<stop offset="0.01" stop-color="#BBC0D9"/>
<stop offset="1" stop-color="#D6DBF8"/>
</linearGradient>
<linearGradient id="paint20_linear" x1="15078.5" y1="-61797.2" x2="15160.4" y2="-61580.5" gradientUnits="userSpaceOnUse">
<stop stop-color="#E0E4EB"/>
<stop offset="0.99" stop-color="#F3F6FD"/>
</linearGradient>
<linearGradient id="paint21_linear" x1="103.69" y1="420.31" x2="96.67" y2="449" gradientUnits="userSpaceOnUse">
<stop stop-color="#E6EAF1"/>
<stop offset="0.99" stop-color="#F3F6FD"/>
</linearGradient>
<linearGradient id="paint22_linear" x1="75.0101" y1="546.2" x2="128.47" y2="533.92" gradientUnits="userSpaceOnUse">
<stop offset="0.11" stop-color="#8988D5"/>
<stop offset="0.56" stop-color="#9D9CE8"/>
<stop offset="1" stop-color="#A7A5EE"/>
</linearGradient>
<linearGradient id="paint23_linear" x1="316.079" y1="203.415" x2="272.836" y2="195.99" gradientUnits="userSpaceOnUse">
<stop stop-color="#201F4F"/>
<stop offset="0.26" stop-color="#27275A"/>
<stop offset="0.72" stop-color="#393C76"/>
<stop offset="1" stop-color="#464B8B"/>
</linearGradient>
<linearGradient id="paint24_linear" x1="-174720" y1="-27033.4" x2="-173467" y2="-27033.4" gradientUnits="userSpaceOnUse">
<stop stop-color="#201F4F"/>
<stop offset="0.26" stop-color="#27275A"/>
<stop offset="0.72" stop-color="#393C76"/>
<stop offset="1" stop-color="#464B8B"/>
</linearGradient>
<linearGradient id="paint25_linear" x1="-174625" y1="-27400" x2="-173375" y2="-27400" gradientUnits="userSpaceOnUse">
<stop stop-color="#201F4F"/>
<stop offset="0.26" stop-color="#27275A"/>
<stop offset="0.72" stop-color="#393C76"/>
<stop offset="1" stop-color="#464B8B"/>
</linearGradient>
<linearGradient id="paint26_linear" x1="245.09" y1="237.26" x2="256.32" y2="175.71" gradientUnits="userSpaceOnUse">
<stop offset="0.28" stop-color="#201F4F"/>
<stop offset="1" stop-color="#201F4F"/>
</linearGradient>
<linearGradient id="paint27_linear" x1="11398.4" y1="10219.9" x2="14674.1" y2="8601.88" gradientUnits="userSpaceOnUse">
<stop offset="0.28" stop-color="#201F4F"/>
<stop offset="1" stop-color="#201F4F"/>
</linearGradient>
<linearGradient id="paint28_linear" x1="253.86" y1="240.832" x2="279.552" y2="257.118" gradientUnits="userSpaceOnUse">
<stop stop-color="#A04400"/>
<stop offset="1" stop-color="#753200"/>
</linearGradient>
<linearGradient id="paint29_linear" x1="281.51" y1="236.12" x2="224.85" y2="223.5" gradientUnits="userSpaceOnUse">
<stop stop-color="#A96E46"/>
<stop offset="1" stop-color="#FFD0B9"/>
</linearGradient>
<linearGradient id="paint30_linear" x1="231.39" y1="216.51" x2="256.89" y2="230.68" gradientUnits="userSpaceOnUse">
<stop stop-color="#A96E46"/>
<stop offset="1" stop-color="#FFD0B9" stop-opacity="0"/>
</linearGradient>
<linearGradient id="paint31_linear" x1="24463.1" y1="2649.32" x2="24481.5" y2="2655.23" gradientUnits="userSpaceOnUse">
<stop stop-color="#A96E46"/>
<stop offset="1" stop-color="#FFD0B9"/>
</linearGradient>
<linearGradient id="paint32_linear" x1="243.7" y1="182.1" x2="279.56" y2="182.1" gradientUnits="userSpaceOnUse">
<stop stop-color="#FFD0B9" stop-opacity="0"/>
<stop offset="1" stop-color="#A96E46"/>
</linearGradient>
<linearGradient id="paint33_linear" x1="8277.1" y1="15292.7" x2="9966.39" y2="15292.7" gradientUnits="userSpaceOnUse">
<stop stop-color="#201F4F"/>
<stop offset="0.26" stop-color="#27275A"/>
<stop offset="0.72" stop-color="#393C76"/>
<stop offset="1" stop-color="#464B8B"/>
</linearGradient>
<linearGradient id="paint34_linear" x1="9307.28" y1="15835.9" x2="11319" y2="15835.9" gradientUnits="userSpaceOnUse">
<stop stop-color="#201F4F"/>
<stop offset="0.26" stop-color="#27275A"/>
<stop offset="0.72" stop-color="#393C76"/>
<stop offset="1" stop-color="#464B8B"/>
</linearGradient>
<linearGradient id="paint35_linear" x1="7998.65" y1="14580.6" x2="9687.94" y2="14580.6" gradientUnits="userSpaceOnUse">
<stop stop-color="#201F4F"/>
<stop offset="0.26" stop-color="#27275A"/>
<stop offset="0.72" stop-color="#393C76"/>
<stop offset="1" stop-color="#464B8B"/>
</linearGradient>
<linearGradient id="paint36_linear" x1="6990.49" y1="-5153.07" x2="8962.39" y2="-4985.76" gradientUnits="userSpaceOnUse">
<stop stop-color="#201F4F"/>
<stop offset="0.26" stop-color="#27275A"/>
<stop offset="0.72" stop-color="#393C76"/>
<stop offset="1" stop-color="#464B8B"/>
</linearGradient>
<linearGradient id="paint37_linear" x1="9347.9" y1="14048.2" x2="11411.1" y2="14048.2" gradientUnits="userSpaceOnUse">
<stop stop-color="#201F4F"/>
<stop offset="0.26" stop-color="#27275A"/>
<stop offset="0.72" stop-color="#393C76"/>
<stop offset="1" stop-color="#464B8B"/>
</linearGradient>
<linearGradient id="paint38_linear" x1="6026.33" y1="14247.6" x2="6852.77" y2="14247.6" gradientUnits="userSpaceOnUse">
<stop stop-color="#201F4F"/>
<stop offset="0.26" stop-color="#27275A"/>
<stop offset="0.72" stop-color="#393C76"/>
<stop offset="1" stop-color="#464B8B"/>
</linearGradient>
<linearGradient id="paint39_linear" x1="8693.54" y1="13826.8" x2="10280.1" y2="13826.8" gradientUnits="userSpaceOnUse">
<stop stop-color="#201F4F"/>
<stop offset="0.26" stop-color="#27275A"/>
<stop offset="0.72" stop-color="#393C76"/>
<stop offset="1" stop-color="#464B8B"/>
</linearGradient>
<linearGradient id="paint40_linear" x1="249.49" y1="190.32" x2="289.37" y2="190.32" gradientUnits="userSpaceOnUse">
<stop stop-color="#464B8B"/>
<stop offset="0.28" stop-color="#393C76"/>
<stop offset="0.74" stop-color="#27275A"/>
<stop offset="1" stop-color="#201F4F"/>
</linearGradient>
<linearGradient id="paint41_linear" x1="12410.8" y1="26239.5" x2="13640.9" y2="26141.1" gradientUnits="userSpaceOnUse">
<stop stop-color="#464B8B"/>
<stop offset="0.28" stop-color="#393C76"/>
<stop offset="0.74" stop-color="#27275A"/>
<stop offset="1" stop-color="#201F4F"/>
</linearGradient>
<linearGradient id="paint42_linear" x1="248839" y1="55752.9" x2="246554" y2="54164.8" gradientUnits="userSpaceOnUse">
<stop stop-color="#464B8B"/>
<stop offset="0.28" stop-color="#393C76"/>
<stop offset="0.74" stop-color="#27275A"/>
<stop offset="1" stop-color="#201F4F"/>
</linearGradient>
<linearGradient id="paint43_linear" x1="232322" y1="58249.4" x2="230134" y2="56509.9" gradientUnits="userSpaceOnUse">
<stop stop-color="#464B8B"/>
<stop offset="0.28" stop-color="#393C76"/>
<stop offset="0.74" stop-color="#27275A"/>
<stop offset="1" stop-color="#201F4F"/>
</linearGradient>
<linearGradient id="paint44_linear" x1="229.418" y1="196.896" x2="204.331" y2="179.408" gradientUnits="userSpaceOnUse">
<stop stop-color="#464B8B"/>
<stop offset="0.3" stop-color="#3D417D"/>
<stop offset="0.88" stop-color="#252558"/>
<stop offset="1" stop-color="#201F4F"/>
</linearGradient>
<linearGradient id="paint45_linear" x1="1868.34" y1="-50270.1" x2="3330.4" y2="-50568.4" gradientUnits="userSpaceOnUse">
<stop stop-color="#464B8B"/>
<stop offset="0.28" stop-color="#393C76"/>
<stop offset="0.74" stop-color="#27275A"/>
<stop offset="1" stop-color="#201F4F"/>
</linearGradient>
<linearGradient id="paint46_linear" x1="9929.76" y1="-22312.5" x2="11528.2" y2="-22733.1" gradientUnits="userSpaceOnUse">
<stop stop-color="#464B8B"/>
<stop offset="0.28" stop-color="#393C76"/>
<stop offset="0.74" stop-color="#27275A"/>
<stop offset="1" stop-color="#201F4F"/>
</linearGradient>
<linearGradient id="paint47_linear" x1="4579.53" y1="-45868.6" x2="6089.24" y2="-46161.3" gradientUnits="userSpaceOnUse">
<stop stop-color="#464B8B"/>
<stop offset="0.3" stop-color="#3D417D"/>
<stop offset="0.88" stop-color="#252558"/>
<stop offset="1" stop-color="#201F4F"/>
</linearGradient>
<linearGradient id="paint48_linear" x1="222.14" y1="566.37" x2="219.5" y2="529.73" gradientUnits="userSpaceOnUse">
<stop stop-color="#FFD0B9"/>
<stop offset="1" stop-color="#A96E46"/>
</linearGradient>
<linearGradient id="paint49_linear" x1="209.83" y1="549.77" x2="213.52" y2="549.77" gradientUnits="userSpaceOnUse">
<stop offset="0.05" stop-color="#F7E5E3"/>
<stop offset="1" stop-color="#F7D6D2"/>
</linearGradient>
<linearGradient id="paint50_linear" x1="6434.96" y1="23460.7" x2="6915.7" y2="25105.8" gradientUnits="userSpaceOnUse">
<stop stop-color="#A96E46"/>
<stop offset="1" stop-color="#FFD0B9"/>
</linearGradient>
<linearGradient id="paint51_linear" x1="9779.87" y1="24863.8" x2="9690.15" y2="24017.7" gradientUnits="userSpaceOnUse">
<stop offset="0.05" stop-color="#F7E5E3"/>
<stop offset="1" stop-color="#F7D6D2"/>
</linearGradient>
<linearGradient id="paint52_linear" x1="1457.72" y1="10793.6" x2="1478.38" y2="10793.6" gradientUnits="userSpaceOnUse">
<stop offset="0.05" stop-color="#F7E5E3"/>
<stop offset="1" stop-color="#F7D6D2"/>
</linearGradient>
<linearGradient id="paint53_linear" x1="14663.1" y1="88036.7" x2="23953.9" y2="88036.7" gradientUnits="userSpaceOnUse">
<stop offset="0.05" stop-color="#F7E5E3"/>
<stop offset="1" stop-color="#F7D6D2"/>
</linearGradient>
<linearGradient id="paint54_linear" x1="11514.4" y1="7129.18" x2="13927.6" y2="7129.18" gradientUnits="userSpaceOnUse">
<stop stop-color="#A96E46"/>
<stop offset="1" stop-color="#FFD0B9"/>
</linearGradient>
<linearGradient id="paint55_linear" x1="25872.9" y1="9804.14" x2="34506.7" y2="9804.14" gradientUnits="userSpaceOnUse">
<stop stop-color="#A96E46"/>
<stop offset="1" stop-color="#FFD0B9"/>
</linearGradient>
<linearGradient id="paint56_linear" x1="5577.78" y1="11985.1" x2="6299.24" y2="11985.1" gradientUnits="userSpaceOnUse">
<stop stop-color="#A96E46"/>
<stop offset="1" stop-color="#FFD0B9"/>
</linearGradient>
<linearGradient id="paint57_linear" x1="253.53" y1="337.39" x2="254.53" y2="331.23" gradientUnits="userSpaceOnUse">
<stop stop-color="#F7E5E3"/>
<stop offset="1" stop-color="#D4ACA7"/>
</linearGradient>
<linearGradient id="paint58_linear" x1="1373.22" y1="2492.46" x2="1387.64" y2="2464.19" gradientUnits="userSpaceOnUse">
<stop offset="0.05" stop-color="#F7E5E3"/>
<stop offset="1" stop-color="#F7D6D2"/>
</linearGradient>
<linearGradient id="paint59_linear" x1="1394.94" y1="2710.55" x2="1411.92" y2="2710.55" gradientUnits="userSpaceOnUse">
<stop offset="0.05" stop-color="#F7E5E3"/>
<stop offset="1" stop-color="#F7D6D2"/>
</linearGradient>
<linearGradient id="paint60_linear" x1="2737.49" y1="11767.2" x2="2867.91" y2="11767.2" gradientUnits="userSpaceOnUse">
<stop stop-color="#F7E5E3"/>
<stop offset="1" stop-color="#D4ACA7"/>
</linearGradient>
<linearGradient id="paint61_linear" x1="251.15" y1="165.27" x2="267.34" y2="165.27" gradientUnits="userSpaceOnUse">
<stop stop-color="#363972"/>
<stop offset="0.37" stop-color="#3D417D"/>
<stop offset="1" stop-color="#464B8B"/>
</linearGradient>
</defs>
</svg>
